<svg class="hidden" xmlns="http://www.w3.org/2000/svg" xmlns:xlink="http://www.w3.org/1999/xlink">
<defs><rect id="card" width="70500" rx="5124" height="98250" stroke="#dbdbdb" stroke-width="708.66" fill="#fff"/></defs>
<symbol id="1" viewBox="0 0 200000 130000"><use transform="matrix(.84066-.38265.38265.84066 8597.05 35049.1)" xlink:href="#card"/><g fill="#333"><text x="100000" y="65000" font-weight="bold" font-size="9236.43" font-family="Verdana" transform="matrix(.91015-.41428.41428.91015-101693 26790.3)">10</text><path d="m20031 45216c1023 253 2548 902 3434 1471 2521 1600 382 3984-1276 2832 334 525 732 959 1144 1234l-1294 589c63-491-3-1076-179-1673-221 2007-3423 2054-2975-897 154-1042 666-2618 1146-3556"/><path d="m28094 39423c1790 444 4458 1580 6009 2575 4411 2800 669 6973-2234 4957 586 919 1283 1678 2003 2158l-2265 1031c110-858-5-1882-313-2927-386 3513-5991 3594-5205-1571 268-1823 1164-4581 2005-6223"/><path d="m35747 56237c1791 444 4458 1580 6010 2575 4410 2800 668 6972-2235 4956 586 919 1283 1679 2003 2159l-2265 1031c111-858-5-1883-313-2928-386 3514-5990 3595-5205-1570 268-1823 1164-4581 2005-6223"/><path d="m43400 73050c1791 444 4459 1580 6010 2575 4411 2800 669 6973-2235 4957 586 919 1283 1678 2003 2159l-2265 1031c111-859-4-1883-313-2928-386 3513-5990 3595-5205-1570 269-1824 1164-4582 2005-6224"/><path d="m51053 89864c1791 444 4459 1580 6010 2575 4411 2800 669 6973-2234 4957 585 919 1282 1678 2002 2158l-2265 1031c111-858-4-1882-312-2928-387 3514-5991 3595-5206-1570 269-1823 1164-4581 2005-6223"/></g><use transform="matrix(.9039-.19002.19002.9039 33541.9 20217.6)" xlink:href="#card"/><g fill="#333"><text x="100000" y="65000" font-weight="bold" font-size="9236.15" font-family="Verdana" transform="matrix(.97861-.20573.20573.97861-71240.9-12125.1)">J</text><path d="m42482 32634c944 470 2290 1437 3031 2185 2110 2111-496 3972-1864 2486 212 585 506 1095 847 1453l-1391 292c169-464 232-1050 190-1671-653 1911-3788 1258-2706-1525 377-983 1220-2410 1893-3220"/></g><path fill="#ababab" d="m63513 53009l-3102-3960 6443-3134 1603 13817-2977 1599z"/><g fill-rule="nonzero"><path fill="#cfcfcf" d="m68392 59170l-599 918-2313 1243-139-651 2521-3852 297 337z"/><path fill="#333" d="m68160 57168c-2553-2901-5105-5803-7657-8705l5048-2448 1415 861 1194 10292"/><g fill="#282828"><path d="m67098 48013l-2513-1530-771 374 3389 2063z"/><path d="m67975 55575l-6620-7525 670-325 5805 6598z"/></g></g><path fill="#909090" d="m64877 58782l-1364-5773-4520-5769-2051 3800 319 7613 1303 6391 5417-2908z"/><path fill="#bcbcbc" d="m60799 56421l-2508-5318 702-3863-2051 3800 319 7613 908 4453 261-3613z"/><g fill-rule="nonzero"><path fill="#333" d="m57744 56504c-165 7-318-67-451-191l596 1518-662 15-237-5675c362 546 2764 4247 754 4333"/><path fill="#ebb07a" d="m63112 31673c0 0 1206 5631 1306 5890 346 881 986 1896 1792 2791l-1461-12595c-1238 967-1970 2310-1637 3914"/><g fill="#333"><path d="m65265 32207l-472 44 459-152z"/><path d="m62789 27364l-932 2499 1641 5106 803 240-879-4830c0 0-219-1700 1342-2027l52-11-301-2595c-571 552-1146 1097-1726 1618"/></g></g><path fill="#ababab" d="m69877 71978l-4611-177 1245-4873-506-2749 2794-1500z"/><g fill-rule="nonzero"><path fill="#333" d="m69933 72462l-4347-162 3017-9516 196-105z"/><path fill="#282828" d="m69012 64518l-2479 7817 744 28 1937-6107z"/></g><path fill="#bcbcbc" d="m62625 65994l-125 4780 2197 3254-3407-2652-1507-3856z"/><path fill="#333" fill-rule="nonzero" d="m59783 67520l1095 2801c71-409 380-2304 123-3455l-1218 654"/><path fill="#7d7d7d" d="m66005 64179l506 2749-1814 7100-3407-2652-1507-3856z"/><path fill="#909090" d="m62625 65994l-125 4780 2197 3254-3407-2652-1507-3856z"/><path fill="#202020" fill-rule="nonzero" d="m59783 67520l1095 2801c71-409 380-2304 123-3455l-1218 654"/><use transform="matrix(.91782-.10366.10366.91782 62671.7 15115.7)" xlink:href="#card"/><g fill="#333"><text x="100000" y="65000" font-weight="bold" font-size="9236.15" font-family="Verdana" transform="matrix(.99368-.11223.11223.99368-38581.8-26994)">Q</text><path d="m70398 28322c894 558 2143 1647 2810 2462 1901 2301-870 3907-2091 2298 156 603 400 1139 706 1527l-1413 160c212-447 331-1024 348-1646-831 1840-3891 893-2551-1774 469-943 1443-2284 2191-3027"/><path d="m91525 76011c-1585-645-3283 1527-934 3019 252 161 556 329 885 493l49-3512"/></g><g fill-rule="nonzero"><path fill="#c9c9c9" d="m87786 38913l4260-473-295 6423z"/><path fill="#fdd8ab" d="m91080 52196c-126 193-2389 4646-2535 7724l-3029 1274c-669-5678 676-11450 4033-16108l2408-272c-25 1828-125 8286-877 7382"/><path fill="#ebebeb" d="m91884 50102c-2600-1228-5033-3167-5368-6209-298-2723 1270-4980 1270-4980l4166 6252-68 4937"/><path fill="#333" d="m87511 40285l965 1029-530-1307-435 278m2270 6523l968 1031-530-1312-438 281m-1756-46l964 1027-529-1307-435 280m-941-1586l-416-441c-74-285-122-564-152-842l568 1283m1325-597l968 1030-531-1308-437 278m-1372-2230l968 1027-531-1309-437 282m3217 2399l966 1025-532-1307-434 282m-1370-2230l966 1025-533-1306-433 281"/></g><path fill="#b8b8b8" d="m90078 40194c545 497 1204 1022 1923 1447l12-825c-668-109-1321-316-1935-622"/><path fill="#fdcc90" fill-rule="nonzero" d="m91874 50779c-2014-611-3414-1446-4316-2330 171-376 352-749 537-1052 1001 1130 2387 2039 3789 2705l-10 677m-791 1420c-133 188-2398 4652-2542 7723l-331 139c-1046-3078 3122-8858 3122-8858 198 365-219 1033-249 996m874-7385l-222 25 217 329 5-354"/><path fill="#333" d="m92236 24717c-2802 3984-6021 9011-5901 10097 343 3180 2763 5521 5678 6000l223-16097"/><g fill-rule="nonzero"><path fill="#ffd675" d="m91408 36312c0 0-1463 1900-1427 2233 86 795 1010 1175 1631 700 79-1092 980-1999-204-2933"/><path fill="#ffc95d" d="m91075 39115c-381 42-720-225-762-608 42-163 599-979 1152-1721 150 122 528 1003 586 1277-2-1-408 987-976 1052"/><path fill="#fdd8ab" d="m91617 69385c-1790-1731-3250-3741-4360-5931l4137-1740c116 152 225 292 323 416l-100 7255"/><path fill="#ebebeb" d="m91658 66420c-1337 1522-2224 3361-1977 5501 215 1847 1221 3293 1845 4032l132-9533"/><path fill="#fdcc90" d="m91675 65139c-901 704-1551 1419-1994 2108 251 329 510 652 758 906 329-603 747-1179 1219-1718l17-1296"/><path fill="#e5e5e5" d="m91658 66420c-1337 1522-2224 3361-1977 5501 215 1847 1221 3293 1845 4032l132-9533"/><path fill="#282828" d="m89949 70544l-307 522c-9 294 7 577 39 855l268-1377"/><path fill="#fdbc73" d="m91675 65139c-901 704-1551 1419-1994 2108 251 329 510 652 758 906 329-603 747-1179 1219-1718l17-1296"/></g><use transform="matrix(.92359.0109-.0109.92359 91538.9 12632.7)" xlink:href="#card"/><g fill="#333"><text x="100000" y="65000" font-weight="bold" font-size="9236.15" font-family="Verdana" transform="matrix(.99993.0118-.0118.99993-3714.33-41702.4)">K</text><path d="m97568 26695c819 664 1923 1900 2484 2791 1601 2519-1348 3769-2360 2021 80 618 256 1180 512 1603l-1422-17c266-417 455-974 549-1590-1053 1723-3971 405-2311-2076 582-878 1715-2087 2548-2732"/></g><g fill-rule="nonzero"><path fill="#ebbe9f" d="m117579 26319l-569 6549 311 4663 4478 3280 5376-16028c-3179-1172-6348-660-9596 1536"/><path fill="#9c9c9c" d="m122923 28874l-2823-389-1359 700 1382-371 2645 780 155-720m1971 23l937-107-227 676-572 155-138-724"/><path fill="#333" d="m121937 30020c620 1438-2086 1362-1418-17l1418 17"/></g><path fill="#9c9c9c" d="m117553 26623l-404 4649 1522-4460c1-2-1013-170-1118-189"/><g fill-rule="nonzero"><path fill="#e5a980" d="m123415 29703l-918 3051 870 957 811 9 718-2141-513-1864-968-12m185 5740l-1116-13-6 554 937 11 185-552"/><path fill="#9c9c9c" d="m121331 42205c-1270-1136-2282-2334-2313-3431l690-4870 4390 52-266 793-2663-32-305 1853 2348 27-1881 5608"/><path fill="#ffde90" d="m117391 26592l-733-3381 3578 617 3760-2311 3512 2275-1138 3393c-3018 152-6119-46-8979-593"/><path fill="#7d7d7d" d="m124894 28897l937-107-227 676-572 155z"/><path fill="#333" d="m123972 23480c0 0-1032 1047-1033 1249-8 487 535 797 938 548l-400 663 932 11-383-673c396 259 947-38 950-525 4-202-1004-1273-1004-1273"/></g><path fill="#ebebeb" d="m113521 59776l7449-17911c-874-930-1832-1839-1952-3091l-1697-1243-96-1434-11200 6198-275 19664 7771-2183"/><path fill="#282828" d="m113521 59776l6504-15639-4722 15138z"/><path fill="#333" fill-rule="nonzero" d="m107591 48589l-232 1504 761-1320-529-184m12036-7541l-231 1508 758-1323-527-185m-3076 2752l-231 1504 760-1320-529-184m-2966-35l-232 1502 760-1319-528-183m-2966-36l-233 1502 761-1321-528-181m-3302-41l-231 1503 761-1321-530-182m5910-4109l-232 1504 758-1321-526-183m2962 641l-234 1508 762-1318-528-190m-5250 18167l-233 1504 761-1319-528-185m-2967-36l-231 1504 757-1319-526-185m5086-4835l-232 1504 758-1320-526-184m-2967-36l-232 1505 757-1321-525-184m-2967-37l-232 1505 757-1320-525-185m9702-4741l-229 1504 757-1319-528-185m-2964-36l-236 1504 761-1320-525-184m-2970-36l-232 1504 760-1320-528-184"/><path fill="#ebebeb" d="m109826 76504l-4177-2441 89-9237 8838-2482z"/><path fill="#333" fill-rule="nonzero" d="m107364 67807l-197-1508 729 1337-532 171m2912 4931l-197-1507 729 1338-532 169m-3302-37l-195-1508 729 1338-534 170m3691-4856l-197-1509 729 1337-532 172"/><use transform="matrix(.87781.28739-.28739.87781 129219 17039)" xlink:href="#card"/><g fill="#333"><g font-family="Verdana" font-weight="bold" font-size="9236.43"><text x="100000" y="65000" transform="matrix(.95036.31114-.31114.95036 54645.9-63362.1)">A</text><text x="100000" y="65000" transform="matrix(-.95036-.31114.31114-.95036 237442 203945)">A</text></g><path d="m161334 108321c989-365 2432-1179 3250-1842 2328-1868-60-4002-1582-2673 275-559 623-1035 1001-1353l-1351-442c117 480 116 1069 7 1682-441-1971-3629-1663-2857 1221 268 1018 950 2528 1532 3407"/><path d="m130754 32262c581 879 1264 2389 1532 3408 772 2883-2416 3191-2857 1220-110 613-110 1202 7 1683l-1351-443c378-318 726-793 1000-1352-1521 1328-3910-805-1582-2674 819-663 2262-1477 3251-1842"/><path d="m149699 59127c2132 3224 4635 8760 5617 12495 2831 10575-8858 11703-10476 4476-401 2248-403 4408 26 6169l-4955-1622c1388-1166 2663-2910 3670-4959-5579 4871-14338-2953-5801-9805 3000-2431 8293-5415 11919-6754"/></g>
</symbol>
<symbol id="10" viewBox="0 0 200000 130000"><use transform="matrix(.84066-.38265.38265.84066 8597.13 35049.1)" xlink:href="#card"/><path fill="#7b976f" fill-rule="nonzero" d="m21276 36888l-1909 5101-1052-2309 652-1740 2309-1052m-4621 74l20541-9349 215 917-20373 9273c-269 122-390 444-267 713l32176 70688c122 268 443 389 712 267l6074-2765 215 917-5906 2688c-732 334-1603 8-1936-725l-32176-70687c-333-731-6-1604 725-1937m8768-1961l-4169 11135-1051-2310 2910-7774 2310-1051m4146-1887l-6428 17168-1051-2310 5169-13807 2310-1051m4146-1887l-8687 23201-1051-2310 7428-19840 2310-1051m3986-1459l-10786 28806-1051-2310 9687-25873 2150-623m1324 5649l-10222 27303-1052-2310 10536-28141 738 3148m1324 5649l-9659 25799-1051-2309 9972-26637 738 3147m1324 5651l-9096 24295-1051-2310 9409-25132 738 3147m1324 5649l-8533 22792-1051-2310 8847-23629 737 3147m1324 5650l-7970 21288-1051-2310 8284-22125 737 3147m1325 5650l-7408 19784-1051-2310 7721-20621 738 3147m1324 5649l-6845 18281-1051-2310 7158-19118 738 3147m1324 5651l-6281 16776-1051-2310 6594-17614 738 3148m1324 5650l-5718 15272-1051-2310 6031-16110 738 3148m1324 5649l-5155 13769-1051-2310 5469-14606 737 3147m1324 5650l-4592 12265-1051-2310 4906-13103 737 3148m1325 5650l-4029 10761-1051-2309 4342-11599 738 3147m1324 5650l-1286 3434-2310 1051 2858-7633 738 3148"/><use transform="matrix(.9039-.19002.19002.9039 33542 20217.7)" xlink:href="#card"/><path fill="#7b976f" fill-rule="nonzero" d="m45514 24779l-2976 4561-522-2483 1015-1556 2483-522m-4526-936l24089-5064 96 924-23995 5044c-289 61-476 348-415 637l15977 76005c61 289 349 477 638 416l16056-3375 97 923-15963 3356c-788 166-1566-342-1732-1130l-15977-76004c-166-787 343-1567 1129-1732m8985-1l-6498 9957-522-2484 4536-6951 2484-522m4458-937l-10019 15351-522-2484 8057-12345 2484-522m4457-938l-13539 20747-522-2483 11578-17741 2483-523m4459-937l-17061 26142-522-2483 15099-23137 2484-522m2226 2482l-18349 28118-523-2483 18575-28464 297 2829m533 5077l-17945 27499-522-2483 18170-27844 297 2828m533 5078l-17541 26879-522-2483 17766-27224 297 2828m532 5078l-17136 26258-522-2482 17362-26605 296 2829m533 5077l-16732 25639-522-2483 16957-25984 297 2828m533 5078l-16328 25019-522-2483 16553-25365 297 2829m533 5077l-15924 24400-522-2483 16149-24745 297 2828m532 5078l-15518 23780-523-2483 15745-24126 296 2829m533 5078l-15114 23161-522-2484 15339-23506 297 2829m533 5077l-14710 22541-522-2484 14935-22886 297 2829m533 5078l-14306 21921-522-2484 14531-22266 297 2829m533 5077l-13902 21302-522-2483 14127-21647 297 2828m532 5078l-10099 15475-2483 522 12285-18826 297 2829m533 5077l-6174 9460-2483 523 8360-12811 297 2828m533 5078l-2249 3445-2483 522 4435-6795 297 2828"/><use transform="matrix(.91782-.10366.10366.91782 62672 15115.4)" xlink:href="#card"/><path fill="#7b976f" fill-rule="nonzero" d="m74159 20789l-3394 4259-285-2521 1158-1453 2521-285m-4417-1360l22893-2586v930l-22789 2574c-294 33-508 301-475 595l8717 77175c33 294 302 508 595 475l13952-1576v929l-13848 1565c-800 90-1527-489-1617-1289l-8717-77175c-90-798 491-1527 1289-1617m8944 848l-7410 9298-285-2522 5174-6491 2521-285m4527-511l-11426 14335-285-2522 9189-11528 2522-285m4526-511l-15441 19373-285-2522 13205-16566 2521-285m4527-511l-19457 24410-284-2521 17219-21604 2522-285m369 4705l-19314 24232-285-2521 19599-24591v2880m0 5168l-18803 23590-285-2521 19088-23948v2879m0 5168l-18292 22949-285-2521 18577-23307v2879m0 5167l-17781 22309-284-2522 18065-22666v2879m0 5168l-17269 21667-285-2521 17554-22024v2878m0 5168l-16758 21026-285-2522 17043-21382v2878m0 5168l-16247 20384-284-2521 16531-20741v2878m0 5169l-15735 19742-285-2522 16020-20100v2880m0 5168l-15224 19101-285-2522 15509-19458v2879m0 5167l-14713 18460-285-2522 14998-18817v2879m0 5169l-14202 17818-284-2522 14486-18176v2880m0 5167l-13691 17177-284-2521 13975-17534v2878m0 5168l-9304 11674-2521 284 11825-14836v2878m0 5168l-4777 5994-2521 285 7298-9157v2878m-251 5483l-2521 285 2772-3478-251 3193"/><use transform="matrix(.92359.0109-.0109.92359 91538.7 12632.7)" xlink:href="#card"/><path fill="#7b976f" fill-rule="nonzero" d="m102234 19686l-3896 3806 30-2537 1329-1299 2537 30m-4214-1897l52031 614c802 9 1454 677 1444 1479l-84 7143-920-346 81-6808c3-297-235-541-532-544l-52031-614c-296-4-541 236-545 532l-916 77660c-3 295 237 542 532 545l8838 104-320 920-8529-101c-805-9-1454-674-1445-1479l917-77660c9-803 676-1454 1479-1445m8770 1951l-8506 8307 30-2537 5938-5800 2538 30m4555 54l-13115 12808 30-2538 10547-10300 2538 30m4555 53l-17724 17310 30-2538 15156-14801 2538 29m4555 54l-22332 21811 30-2537 19764-19304 2538 30m4555 54l-26941 26312 30-2537 24373-23805 2538 30m4555 54l-31550 30813 30-2537 28983-28306 2537 30m2627 1937l-34231 33431 30-2537 33592-32808 609 1914m-2368 6815l-31916 31171 30-2537 33205-32431-1319 3797m13406-8591l-2795 2729-1854-697 2111-2062 2538 30m-15775 15406l-29601 28911 30-2537 30890-30170-1319 3796m20330-15352l-4021 3926-1854-697 3338-3259 2537 30m-22698 22168l-27287 26650 30-2537 28576-27909-1319 3796m24525-19451l-2519 2461-1854-697 4403-4301-30 2537m-26894 26267l-24972 24389 30-2537 26262-25649-1320 3797m-2368 6816l-22657 22128 30-2537 23946-23388-1319 3797m-2369 6817l-20342 19867 30-2538 21632-21127-1320 3798m-2368 6814l-18028 17607 30-2537 19317-18867-1319 3797m-2369 6816l-15712 15346 29-2537 17003-16606-1320 3797m-2368 6816l-13398 13085 30-2537 14687-14344-1319 3796m-2369 6815l-6635 6481-2537-30 10492-10247-1320 3796"/><use transform="matrix(.87781.28739-.28739.87781 129219 17038.9)" xlink:href="#card"/><path fill="#7b976f" fill-rule="nonzero" d="m137307 26975l-4859 2462 789-2411 1658-840 2412 789m-3452-3073l49452 16190c763 249 1184 1081 934 1844l-24165 73811c-250 764-1080 1185-1844 935l-49452-16190c-765-251-1185-1080-934-1845l24165-73811c250-763 1081-1184 1844-934m49164 17068l-49451-16190c-281-92-587 63-679 344l-24165 73810c-92 281 63 588 344 680l49451 16190c282 92 587-63 680-344l24164-73811c93-282-61-587-344-679m-41383-12577l-10605 5374 789-2412 7405-3752 2411 790m4330 1417l-16353 8286 790-2412 13151-6663 2412 789m4329 1417l-22099 11198 790-2412 18897-9575 2412 789m4329 1418l-27845 14109 789-2412 24644-12487 2412 790m4329 1417l-33592 17022 790-2412 30390-15399 2412 789m4329 1418l-39338 19933 789-2412 36138-18311 2411 790m4330 1417l-45086 22845 790-2411 41884-21223 2412 789m4329 1417l-50832 25757 790-2411 47630-24135 2412 789m4329 1418l-56578 28668 789-2411 53378-27047 2411 790m4329 1417l-62324 31581 789-2412 59124-29959 2411 790m928 3140l-64670 32770 790-2412 64670-32769-790 2411m-1417 4330l-64670 32769 789-2411 64671-32770-790 2412m-1418 4330l-64670 32769 790-2412 64670-32769-790 2412m-1417 4329l-64670 32768 790-2411 64670-32769-790 2412m-1417 4329l-64670 32769 790-2412 64669-32769-789 2412m-1417 4329l-64671 32769 790-2411 64670-32769-789 2411m-1418 4329l-59124 29959-2411-790 62325-31580-790 2411m-1417 4329l-53377 27047-2412-789 56578-28669-789 2411m-1418 4330l-47630 24135-2412-790 50832-25757-790 2412m-1417 4329l-41884 21223-2411-790 45085-22845-790 2412m-1417 4329l-36138 18311-2411-789 39338-19933-789 2411m-1418 4329l-30391 15400-2411-790 33592-17021-790 2411m-1417 4330l-24644 12487-2412-790 27845-14109-789 2412m-1417 4329l-18898 9576-2412-790 22099-11198-789 2412m-1418 4329l-13151 6664-2412-790 16353-8286-790 2412m-1417 4329l-7404 3752-2412-790 10605-5374-789 2412m-1417 4329l-1658 840-2412-789 4859-2462-789 2411"/>
</symbol>
<symbol id="2" viewBox="0 0 200000 130000"><use transform="matrix(.84066-.38265.38265.84066 8596.84 35049.1)" xlink:href="#card"/><text x="100000" y="65000" fill="#333" font-weight="bold" font-size="9236.43" font-family="Verdana" transform="matrix(.91015-.41428.41428.91015-100664 26321.8)">2</text><path fill="#e03c1b" fill-rule="nonzero" d="m21480 45226c-661 300-953 1081-653 1741-300-660-1080-953-1740-652-662 301-953 1081-652 1741 453 995 3997 2437 3997 2437 0 0 1242-3621 789-4616-300-660-1080-952-1741-651"/><use transform="matrix(.9039-.19002.19002.9039 33541.7 20217.6)" xlink:href="#card"/><text x="100000" y="65000" fill="#333" font-weight="bold" font-size="9236.43" font-family="Verdana" transform="matrix(.97861-.20573.20573.97861-71291-12114.6)">3</text><path fill="#e03c1b" fill-rule="nonzero" d="m43894 32960c-710 149-1166 847-1017 1556-149-709-846-1164-1555-1015-712 149-1166 847-1018 1556 226 1070 3370 3251 3370 3251 0 0 2002-3263 1777-4333-149-709-846-1164-1557-1015"/><use transform="matrix(.91782-.10366.10366.91782 62671.5 15115.7)" xlink:href="#card"/><text x="100000" y="65000" fill="#333" font-weight="bold" font-size="9236.43" font-family="Verdana" transform="matrix(.99368-.11223.11223.99368-38586.7-26993.4)">4</text><g fill="#e03c1b" fill-rule="nonzero"><path d="m71772 28780c-721 82-1241 734-1160 1453-81-719-732-1239-1452-1158-723 82-1241 733-1160 1453 123 1087 3047 3556 3047 3556 0 0 2302-3059 2179-4146-81-720-732-1239-1454-1158"/><path d="m82343 25895c-1320 149-2271 1342-2122 2659-149-1317-1339-2268-2656-2119-1323 149-2270 1341-2121 2658 224 1988 5572 6503 5572 6503 0 0 4211-5595 3987-7582-149-1317-1341-2267-2660-2119"/><path d="m88563 80966c-1320 149-2271 1341-2122 2658-149-1317-1339-2268-2656-2119-1322 150-2270 1342-2122 2659 225 1987 5573 6502 5573 6502 0 0 4211-5594 3987-7582-149-1317-1341-2267-2660-2118"/></g><use transform="matrix(.92359.0109-.0109.92359 91538.7 12632.7)" xlink:href="#card"/><text x="100000" y="65000" fill="#333" font-weight="bold" font-size="9236.43" font-family="Verdana" transform="matrix(.99993.0118-.0118.99993-3733.13-41702.6)">5</text><g fill="#e03c1b" fill-rule="nonzero"><path d="m98875 27320c-725-9-1322 574-1331 1298 9-724-572-1321-1297-1329-727-9-1322 574-1331 1298-13 1094 2583 3905 2583 3905 0 0 2663-2749 2676-3843 9-724-574-1321-1300-1329"/><path d="m109722 25768c-1327-16-2419 1049-2435 2374 16-1325-1047-2416-2373-2431-1330-16-2418 1050-2434 2375-24 2000 4724 7143 4724 7143 0 0 4872-5030 4895-7030 16-1325-1049-2416-2377-2431"/><path d="m109068 81184c-1327-15-2419 1050-2435 2375 16-1325-1047-2416-2373-2432-1330-15-2418 1050-2434 2375-23 2000 4724 7144 4724 7144 0 0 4872-5030 4895-7030 16-1325-1049-2416-2377-2432"/></g><use transform="matrix(.87781.28739-.28739.87781 129219 17038.9)" xlink:href="#card"/><text x="100000" y="65000" fill="#333" font-weight="bold" font-size="9236.43" font-family="Verdana" transform="matrix(.95036.31114-.31114.95036 54597.2-63378.1)">6</text><g fill="#e03c1b" fill-rule="nonzero"><path d="m131813 33250c-690-226-1434 151-1659 840 225-689-150-1432-839-1658-692-226-1434 151-1659 840-340 1039 1292 4500 1292 4500 0 0 3366-1825 3706-2864 226-688-151-1432-841-1658"/><path d="m174228 45369c-1262-413-2623 275-3035 1535 412-1260-275-2619-1535-3032-1265-413-2622 277-3034 1536-623 1901 2363 8231 2363 8231 0 0 6157-3337 6779-5238 412-1259-276-2619-1538-3032"/><path d="m165606 71703c-1262-413-2623 276-3035 1535 412-1259-275-2618-1535-3031-1264-414-2622 276-3034 1535-622 1902 2364 8232 2364 8232 0 0 6156-3337 6778-5238 413-1260-276-2620-1538-3033"/><path d="m156984 98038c-1262-413-2623 276-3035 1535 412-1259-275-2618-1535-3031-1264-414-2622 276-3034 1536-622 1900 2364 8231 2364 8231 0 0 6156-3337 6778-5238 413-1260-276-2620-1538-3033"/><path d="m160274 107333c690 226 1434-151 1659-839-225 688 150 1431 839 1657 692 226 1434-151 1659-840 341-1039-1292-4500-1292-4500 0 0-3366 1825-3706 2864-226 689 151 1432 841 1658"/><path d="m134004 61357c-1262-413-2622 276-3035 1535 413-1259-274-2618-1534-3031-1265-414-2622 276-3035 1536-622 1900 2364 8231 2364 8231 0 0 6156-3337 6779-5238 412-1260-277-2620-1539-3033"/><path d="m142626 35023c-1262-414-2623 275-3035 1535 412-1260-274-2619-1535-3031-1264-415-2622 275-3034 1535-622 1901 2364 8231 2364 8231 0 0 6156-3337 6778-5238 413-1260-276-2619-1538-3032"/><path d="m125383 87692c-1262-413-2623 276-3035 1535 412-1259-275-2618-1535-3031-1265-414-2622 276-3035 1535-622 1902 2364 8232 2364 8232 0 0 6156-3337 6779-5239 412-1259-276-2619-1538-3032"/></g><text x="100000" y="65000" fill="#333" font-weight="bold" font-size="9236.43" font-family="Verdana" transform="matrix(-.95036-.31114.31114-.95036 237490 203961)">6</text>
</symbol>
<symbol id="3" viewBox="0 0 200000 130000"><use transform="matrix(.84066-.38266.38266.84066 8596.55 35049.4)" xlink:href="#card"/><path fill="#7b976f" fill-rule="nonzero" d="m21276 36889l-1910 5101-1051-2310 651-1740 2310-1051m-4621 74l21579-9823 199 924-21396 9739c-269 123-389 444-267 713l32177 70688c122 269 443 389 712 267l5763-2624 200 924-5580 2540c-733 334-1603 8-1936-725l-32176-70687c-333-731-7-1604 725-1936m8767-1962l-4169 11135-1051-2310 2911-7773 2309-1052m4146-1887l-6428 17168-1051-2310 5170-13807 2309-1051m4146-1887l-8686 23201-1052-2310 7428-19840 2310-1051m4146-1888l-10945 29235-1051-2310 9686-25873 2310-1052m1795 4392l-10853 28989-1051-2310 11204-29926 700 3247m1257 5830l-10223 27305-1051-2309 10574-28243 700 3247m1257 5829l-9592 25622-1052-2309 9944-26560 700 3247m1257 5829l-8962 23939-1051-2310 9313-24876 700 3247m1257 5829l-8332 22256-1051-2310 8683-23193 700 3247m1257 5829l-7702 20573-1051-2310 8053-21509 700 3246m1258 5830l-7073 18889-1051-2310 7423-19826 701 3247m1257 5829l-6442 17206-1052-2310 6793-18143 701 3247m1257 5830l-5812 15522-1051-2310 6162-16460 701 3248m1256 5828l-5181 13840-1051-2310 5532-14777 700 3247m1258 5830l-4552 12156-1051-2310 4902-13094 701 3248m1257 5829l-3921 10473-1052-2309 4273-11411 700 3247m1257 5829l-1111 2967-2310 1051 2721-7265 700 3247"/><use transform="matrix(.9039-.19002.19002.9039 33542.3 20217.6)" xlink:href="#card"/><g fill="#333"><g font-family="Verdana" font-weight="bold" font-size="9236.43"><text x="100000" y="65000" transform="matrix(.97861-.20573.20573.97861-72288.5-11904.8)">10</text><text x="100000" y="65000" transform="matrix(-.97861.20573-.20573-.97861 221767 127752)">10</text></g><g fill-rule="nonzero"><path d="m54707 32491c603-1855-1055-3728-3001-3319-1947 410-2710 2791-1411 4247-1514 169-2566 1605-2252 3103 536 2547 4121 2800 4979 317 80 1128-103 2236-328 2681l2273-478c-385-317-999-1257-1380-2322 1786 1928 4966 252 4430-2295-315-1497-1856-2389-3310-1934"/><path d="m58507 50569c603-1855-1054-3728-3001-3318-1947 409-2710 2790-1411 4246-1514 169-2566 1605-2251 3103 535 2547 4120 2801 4978 317 81 1128-103 2236-327 2681l2272-477c-384-318-998-1258-1379-2323 1785 1928 4965 253 4430-2295-315-1497-1857-2389-3311-1934"/><path d="m66108 86726c603-1856-1054-3728-3001-3319-1947 409-2710 2791-1411 4246-1514 169-2566 1606-2251 3103 535 2548 4120 2801 4978 317 81 1129-103 2236-327 2682l2272-478c-384-317-998-1257-1379-2322 1785 1927 4965 252 4429-2295-314-1498-1856-2389-3310-1934"/><path d="m62308 68648c603-1856-1055-3728-3001-3319-1947 409-2710 2791-1412 4246-1513 169-2565 1606-2251 3103 536 2548 4121 2801 4979 317 80 1129-103 2236-328 2682l2273-478c-385-318-999-1257-1379-2323 1785 1928 4964 253 4429-2294-315-1498-1856-2389-3310-1934"/><path d="m44250 34777c344-1060-603-2130-1715-1896-1113 234-1549 1594-807 2426-865 97-1466 918-1286 1773 306 1456 2355 1601 2845 181 46 645-59 1278-187 1533l1298-273c-220-182-570-719-788-1328 1020 1102 2837 145 2531-1311-180-855-1061-1365-1891-1105"/></g></g><use transform="matrix(.91782-.10366.10366.91782 62672.3 15115.1)" xlink:href="#card"/><text x="100000" y="65000" fill="#333" font-weight="bold" font-size="9236.43" font-family="Verdana" transform="matrix(.99368-.11223.11223.99368-39645.2-26874.3)">10</text><g fill="#e03c1b" fill-rule="nonzero"><path d="m71773 28779c-721 82-1241 734-1160 1454-81-720-732-1240-1452-1159-723 82-1241 734-1160 1454 123 1087 3047 3555 3047 3555 0 0 2302-3059 2179-4145-81-720-732-1240-1454-1159"/><path d="m82344 25895c-1320 149-2271 1341-2122 2658-149-1317-1339-2267-2656-2118-1323 149-2270 1341-2121 2658 224 1988 5572 6503 5572 6503 0 0 4211-5595 3987-7583-149-1317-1341-2267-2660-2118"/><path d="m84417 44252c-1319 149-2271 1341-2122 2658-149-1317-1338-2267-2656-2119-1322 150-2270 1342-2121 2659 224 1987 5572 6502 5572 6502 0 0 4211-5594 3987-7582-149-1317-1340-2267-2660-2118"/><path d="m86490 62608c-1319 149-2270 1342-2122 2659-148-1317-1338-2268-2656-2119-1322 149-2269 1341-2121 2658 225 1988 5573 6503 5573 6503 0 0 4211-5595 3986-7582-148-1317-1340-2267-2660-2119"/><path d="m88564 80965c-1320 149-2271 1342-2122 2658-149-1316-1339-2267-2656-2118-1323 149-2270 1341-2122 2658 225 1988 5573 6503 5573 6503 0 0 4211-5595 3987-7583-149-1316-1341-2267-2660-2118"/></g><use transform="matrix(.92359.0109-.0109.92359 91539.3 12632.7)" xlink:href="#card"/><g fill="#333"><text x="100000" y="65000" font-weight="bold" font-size="9236.43" font-family="Verdana" transform="matrix(.99993.0118-.0118.99993-4784.76-41715)">10</text><path d="m97569 26695c818 664 1922 1900 2483 2791 1601 2519-1347 3769-2359 2021 80 618 255 1180 511 1603l-1422-17c266-417 455-974 549-1590-1053 1723-3971 404-2311-2076 582-878 1715-2087 2549-2732"/><path d="m107329 24878c1432 1163 3364 3325 4346 4885 2802 4409-2359 6596-4130 3537 140 1081 448 2065 895 2805l-2488-29c465-730 796-1706 961-2783-1842 3015-6950 708-4044-3634 1018-1536 3000-3652 4460-4781"/><path d="m107111 43350c1432 1163 3364 3325 4346 4885 2802 4409-2359 6596-4130 3537 140 1081 448 2065 895 2805l-2488-29c465-730 796-1706 961-2783-1842 3016-6950 708-4044-3634 1018-1536 3000-3652 4460-4781"/><path d="m106893 61822c1432 1163 3364 3325 4346 4885 2802 4409-2358 6596-4130 3538 140 1080 448 2064 895 2805l-2488-30c465-730 796-1706 961-2783-1842 3016-6950 708-4044-3633 1018-1537 3000-3653 4460-4782"/><path d="m106675 80295c1432 1162 3364 3325 4346 4885 2802 4408-2358 6595-4129 3537 139 1081 447 2064 895 2805l-2488-30c464-730 796-1706 960-2783-1842 3016-6950 708-4044-3633 1018-1537 3000-3653 4460-4781"/></g><use transform="matrix(.87781.28739-.28739.87781 129219 17038.9)" xlink:href="#card"/><g fill="#333" font-family="Verdana" font-weight="bold" font-size="9236.43"><text x="100000" y="65000" transform="matrix(.95036.31114-.31114.95036 53628.6-63695.4)">10</text><text x="100000" y="65000" transform="matrix(-.95036-.31114.31114-.95036 238460 204279)">10</text></g><g fill="#e03c1b" fill-rule="nonzero"><path d="m132138 36086l-3440 2460-1321-4019 3441-2459z"/><path d="m164711 106055l-3440 2460-1320-4018 3441-2459z"/><path d="m174632 50493l-6020 4305-2311-7031 6023-4304z"/><path d="m168885 68050l-6021 4305-2311-7032 6022-4304z"/><path d="m163136 85606l-6019 4305-2312-7031 6023-4304z"/><path d="m157389 103163l-6020 4305-2311-7032 6022-4304z"/><path d="m143031 40147l-6020 4305-2311-7031 6022-4304z"/><path d="m137283 57704l-6020 4305-2311-7032 6022-4304z"/><path d="m131535 75260l-6020 4305-2311-7031 6022-4304z"/><path d="m125787 92817l-6020 4305-2311-7032 6022-4304z"/><path d="m144462 89212l-6020 4305-2311-7032 6022-4304z"/><path d="m155958 54098l-6021 4305-2311-7031 6023-4304z"/></g>
</symbol>
<symbol id="4" viewBox="0 0 200000 130000"><use transform="matrix(.84066-.38265.38265.84066 8596.84 35049.1)" xlink:href="#card"/><g fill="#333"><text x="100000" y="65000" font-weight="bold" font-size="9236.43" font-family="Verdana" transform="matrix(.91015-.41428.41428.91015-100655 26318.1)">7</text><g fill-rule="nonzero"><path d="m22223 46922c105-1110-1053-1948-2088-1477-1034 471-1163 1894-257 2544-823 283-1231 1215-869 2011 617 1354 2647 1048 2816-444 186 620 222 1260 152 1536l1208-549c-254-129-714-577-1059-1124 1236 853 2800-478 2184-1831-362-796-1333-1101-2087-666"/><path d="m43409 67629c183-1942-1843-3408-3653-2583-1810 824-2036 3314-451 4451-1440 495-2153 2127-1519 3520 1078 2369 4632 1834 4927-777 325 1083 387 2204 266 2688l2113-962c-445-226-1249-1009-1853-1966 2163 1492 4901-836 3822-3206-633-1392-2332-1926-3652-1165"/><path d="m54889 92850c183-1942-1842-3408-3653-2584-1810 824-2036 3314-451 4452-1440 495-2153 2127-1520 3519 1079 2369 4633 1834 4928-777 325 1084 387 2205 265 2689l2114-962c-445-226-1249-1009-1853-1966 2163 1492 4901-837 3822-3206-634-1392-2333-1926-3652-1165"/><path d="m31930 42409c183-1942-1843-3408-3654-2584-1810 824-2035 3315-450 4452-1441 495-2154 2127-1520 3519 1078 2370 4632 1835 4928-776 324 1083 387 2204 265 2688l2113-962c-444-226-1248-1009-1853-1966 2164 1492 4901-837 3823-3206-634-1392-2333-1926-3652-1165"/></g></g><use transform="matrix(.9039-.19002.19002.9039 33541.7 20217.6)" xlink:href="#card"/><g fill="#333"><text x="100000" y="65000" font-weight="bold" font-size="9236.43" font-family="Verdana" transform="matrix(.97861-.20573.20573.97861-71173.4-12139.3)">7</text><path d="m42482 32634c943 470 2290 1437 3031 2185 2110 2111-497 3972-1864 2486 212 585 506 1095 847 1453l-1391 292c169-464 232-1050 190-1671-653 1911-3788 1258-2707-1525 378-983 1221-2410 1894-3220"/><path d="m51614 28740c1651 824 4006 2515 5304 3824 3693 3695-869 6951-3262 4350 371 1025 885 1918 1483 2544l-2435 511c295-813 406-1838 333-2925-1144 3344-6630 2201-4737-2668 660-1721 2135-4217 3314-5636"/><path d="m57315 55858c1651 823 4006 2514 5303 3824 3694 3694-869 6950-3262 4349 371 1025 885 1918 1483 2544l-2435 512c296-814 407-1838 334-2926-1144 3345-6631 2202-4738-2668 661-1720 2136-4217 3315-5635"/><path d="m63016 82975c1650 824 4006 2515 5303 3824 3693 3695-869 6951-3262 4350 371 1025 885 1918 1483 2543l-2435 512c295-813 406-1838 333-2925-1143 3344-6630 2201-4737-2668 660-1721 2136-4217 3315-5636"/></g><use transform="matrix(.91782-.10366.10366.91782 62671.5 15115.7)" xlink:href="#card"/><text x="100000" y="65000" fill="#333" font-weight="bold" font-size="9236.43" font-family="Verdana" transform="matrix(.99368-.11223.11223.99368-38513.3-27001.7)">7</text><g fill="#e03c1b" fill-rule="nonzero"><path d="m71772 28780c-721 82-1241 734-1160 1453-81-719-732-1239-1452-1158-723 82-1241 733-1160 1453 123 1087 3047 3556 3047 3556 0 0 2302-3059 2179-4146-81-720-732-1239-1454-1158"/><path d="m85453 53431c-1320 148-2271 1341-2122 2658-149-1317-1339-2268-2656-2119-1323 149-2270 1341-2121 2658 224 1988 5572 6503 5572 6503 0 0 4211-5595 3987-7582-149-1317-1341-2267-2660-2118"/><path d="m82343 25895c-1320 149-2271 1342-2122 2659-149-1317-1339-2268-2656-2119-1323 149-2270 1341-2121 2658 224 1988 5572 6503 5572 6503 0 0 4211-5595 3987-7582-149-1317-1341-2267-2660-2119"/><path d="m88563 80966c-1320 149-2271 1341-2122 2658-149-1317-1339-2268-2656-2119-1322 150-2270 1342-2122 2659 225 1987 5573 6502 5573 6502 0 0 4211-5594 3987-7582-149-1317-1341-2267-2660-2118"/></g><use transform="matrix(.92359.0109-.0109.92359 91538.7 12632.7)" xlink:href="#card"/><g fill="#333"><text x="100000" y="65000" font-weight="bold" font-size="9236.43" font-family="Verdana" transform="matrix(.99993.0118-.0118.99993-3714.54-41702.4)">Q</text><g fill-rule="nonzero"><path d="m98827 29171c567-960-125-2210-1262-2224-1136-13-1858 1220-1314 2193-865-93-1631 577-1641 1452-17 1487 1951 2073 2738 794-96 640-335 1235-516 1455l1327 16c-175-225-401-825-481-1467 756 1298 2738 758 2755-730 11-874-738-1563-1606-1489"/><path d="m117474 57824c-1949-1102-1016-2958-2189-4805-145 170-2891 4241-3407 7233l-3074 867-34 9c25-4144 1281-9908 4253-13046l7320 967-2869 8775"/></g></g><path fill="#c9c9c9" fill-rule="nonzero" d="m114790 41895l7862 93-1290 3946-4573-53z"/><path fill="#fdd8ab" d="m121362 45934l-4573-53 2397 4778c1424-286 1763-3464 2176-4725m4819-14740l-52-45c-666-568-3816-605-4495-53-1477 1199-2500 3526-2536 6210-31 2308 792 5374 2905 6667l4178-12779"/><g fill-rule="nonzero"><path fill="#ebebeb" d="m119189 52581c-1092-482-2158-1038-3149-1692-2278-1503-4253-3648-4211-6525 40-2693 1840-4704 1840-4704l5899 11761-379 1160"/><path fill="#333" d="m112955 47344l819 1123-361-1340-458 217m1353-4036l816 1119-358-1340-458 221m-1072-2340l816 1117-356-1341-460 224m-710 1953l817 1118-358-1340-459 222m-299 2764l-350-479c-37-287-53-566-48-842l398 1321m1366-424l822 1121-360-1339-462 218m1782 387l816 1120-358-1341-458 221m1070 2341l819 1121-360-1339-459 218m1069 2345l819 1117-363-1339-456 222m-1214 725c-88-57-176-117-260-170l-481-653 459-222 282 1045m-1634-3456l817 1122-358-1340-459 218"/></g><path fill="#616161" d="m120666 42707c-2244 600-3978 646-5954-966 812 1615 4172 2279 5824 2313 327 427 693 790 1090 1072l379-1159c-535-327-948-752-1339-1260"/><g fill-rule="nonzero"><path fill="#fdcc90" d="m123800 38036l-792 2425 143 2 718-2197z"/><g fill="#333"><path d="m122557 35816l-1968-126-870 751 820-870 2020-84z"/><path d="m120285 36898c-510 977 2344 1176 1938 26l-1938-26"/></g></g><path fill="#282828" d="m113023 48082c-253 267-493 553-722 855 1115 1396 3195 2797 6830 3821l58-177c-2313-1023-4754-2480-6166-4499m4449 9749c-1991-1097-910-2735-2188-4815-151 173-2900 4256-3413 7238l-340 95c-653-3126 4117-8271 4117-8271 0 0 1034 2653 2241 4478l-417 1275"/><g fill="#fdcc90"><path d="m116789 45881l1452 17 1401 4660-456 102z"/><path d="m126181 31194l-52-45c-333-284-1287-435-2243-446l-92 7791 2387-7300"/></g><path fill="#fdbc74" fill-rule="nonzero" d="m123869 38266l-69-230-6 458z"/><path fill="#333" d="m120666 42707c-1131-1514-1599-3551-1574-5413 32-2391 847-4499 2069-5778 357 380 861 619 1421 626 602 13 814-269 1291-264 476 6 681 293 1283 294 1338 15 2580-5734 3012-7056-1059-1053-2513-1741-4195-1782-4305 4-7221 4278-5834 8171-4247 266-6737 4864-4778 8546 1532 2948 4323 3564 7305 2656"/><g fill="#282828"><path d="m123872 31878c477 6 682 293 1284 294 1338 16 2580-5735 3012-7056-1059-1053-2513-1740-4195-1782l-101 8544"/><path fill-rule="nonzero" d="m123989 22028c-1072-42-1994 1031-1638 2080-845 62-1582 765-1669 1651-167 1782 1743 2093 2977 1296l-1194 2104 2879 34-1145-2132c1216 827 3133 560 3007-1225-66-888-786-1608-1629-1690 381-1040-516-2135-1588-2118"/></g><g fill-rule="nonzero"><path fill="#202020" d="m123904 29176l1440 17-1145-2132c1216 827 3133 560 3007-1225-66-888-786-1608-1629-1690 380-1040-516-2135-1588-2118l-85 7148"/><path fill="#ffd675" d="m123989 22028c-1114-48-1977 1008-1593 2068-765 45-1376 675-1393 1457-19 1455 1540 1801 2622 1188l-1034 1704 2644 31-994-1728c1068 638 2634 330 2650-1126 1-782-595-1426-1358-1489 408-1050-430-2127-1544-2105"/><path fill="#ffb84a" d="m123913 28460l1322 16-994-1728c1068 638 2634 329 2650-1126 1-782-595-1426-1359-1489 408-1050-429-2127-1543-2105l-76 6432"/><path fill="#333" d="m122529 41985c30 32 61 63 94 92l136-414c-260 130-447 320-447 320l217 2"/><path fill="#454545" d="m122529 41986c30 32 61 63 94 92l29-90-123-2"/><path fill="#333" d="m112783 68444c-1161-1286-2036-2987-2664-4831l4320-1219c390 672 678 1113 722 1167 31-46-253 3693-2378 4883"/></g><use transform="matrix(.87781.28739-.28739.87781 129219 17038.9)" xlink:href="#card"/><g fill="#333" font-family="Verdana" font-weight="bold" font-size="9236.43"><text x="100000" y="65000" transform="matrix(.95036.31114-.31114.95036 54645.7-63362.2)">Q</text><text x="100000" y="65000" transform="matrix(-.95036-.31114.31114-.95036 237441 203945)">Q</text></g><g fill="#e03c1b" fill-rule="nonzero"><path d="m132137 36086l-3440 2460-1320-4018 3441-2460z"/><path d="m164711 106055l-3440 2460-1321-4018 3441-2459z"/></g><path fill="#c9c9c9" d="m143258 56422l-1124-6942 19371 6344-5014 4932z"/><g fill="#d66142"><path d="m138991 57328c-4121 2923-6394 6312-7939 11093h1l3233 105c1411-2674 5193-5693 5386-5814 633 2493-1096 3740 932 5521 5 177 7 343 3 500l13985 457c258-416 586-841 1073-1242 25 66 163 555 329 1288l4485 147c-105-1738-459-3501-1081-5374-2733 2002-8454 3006-11894 1823-3474-1081-7494-5273-8513-8504"/><path fill-rule="nonzero" d="m143999 50094c-1195-2900-1536-6090-1536-6090 4888-2501 9845-5025 14681-7618 2367 4951 4871 9918 7334 14825 0 0-2162 2372-4841 4002-1949 1184-3959 1747-5971 1429 2977-1769 4528-6621 3772-9790-380-1595-1470-3442-3151-1739-348-2368-2320-1522-3569-461-2484 2108-4103 6939-2749 10125-1809-933-3098-2576-3970-4683"/></g><path fill="#c94d35" d="m138076 57964c716 1850 2544 4028 6461 6346-2148-1546-4759-4488-5546-6981-313 195-627 407-915 635m21683 7098c-1671 1070-4433 1744-8963 1297 2647 25 6492-805 8601-2350 137 343 265 700 362 1053m-6219 4094c1156-1116 2081-2214 2081-2214 0 0 430 967 861 2310l-481-16c-107-502-221-944-336-1288-453 384-769 813-1031 1244l-1094-36m-11533-377c-1337-1369-1705-6852-1705-6852 0 0-5996 3428-6397 6587l382 13c907-1622 3878-4755 5385-5815 537 2242-1007 3818 932 5521 5 167 7 334 4 500l1399 46"/><g fill-rule="nonzero"><path fill="#ebebeb" d="m144539 64311c-2901-2323-6508-6047-5778-10072 321-1849 1776-3809 3371-4758l2407 14830m6255 2048c3713-158 8824-1028 10616-4705 834-1680 820-4122 95-5830l-10711 10535"/><path fill="#333" d="m140701 57363l447 1314 60-1387-507 73m17297 5662l-1138 796 773-1154 365 358m1699 307l-1135 794 773-1151 362 357m1226-1338l487-340c127-258 232-520 315-781l-802 1121m-1157-842l-1136 796 772-1151 364 355m1768-1872l-1136 796 773-1152 363 356m-6200 6488c105-27 205-52 303-78l662-463-364-358-601 899m854-2952l-1137 795 773-1151 364 356m1769-1872l-1137 795 773-1153 364 358m1767-1871l-1137 795 773-1154 364 359m1769-1872l-1136 794 771-1149 365 355m-7073 7488l-1137 795 772-1152 365 357m-15270-8083l446 1311 57-1386-503 75m-197-1805l-192-562c50-283 121-557 208-816l-16 1378m1431 5l445 1314 58-1384-503 70m-319-2555l446 1314 57-1386-503 72m1163 8899c-69-84-135-164-198-242l-261-765 506-74-47 1081m1057-2886l446 1313 58-1385-504 72m-319-2555l446 1313 58-1387-504 74m-319-2554l446 1313 59-1388-505 75m-319-2556l446 1313 58-1383-504 70m1275 10222l447 1313 58-1386-505 73"/><path fill="#fdd8ab" d="m154287 45113c-348-2368-2320-1522-3569-461-2942 2497-4672 8817-1681 11695l-561 1714-5217-1638 1280 7889c870 648 1928 1200 2965 1520 1026 355 2205 536 3290 528l5697-5604-5176-1765 562-1715c4114-552 6457-6670 5561-10424-380-1595-1470-3442-3151-1739"/></g><path fill="#b8b8b8" d="m160628 55537c-2096 1552-4786 2964-7018 2234-574 392-1770 770-2159 806l425-1300c602-77 1526-431 2003-814 2340 736 4725-622 5757-1249l992 323m-17619-5768c772 2491 2107 5220 4338 5951 231 656 972 1669 1265 1928l425-1301c-440-418-975-1249-1133-1840-2322-791-3442-3296-3904-4412l-991-326"/><g fill-rule="nonzero"><path fill="#333" d="m149272 48827c-741 897 1935 1737 1845 606l-1845-606m6862 2247c68 1161-2587 256-1846-603l1846 603"/><path fill="#d66142" d="m151764 48472l-1839-708-1056 457 1046-593 1951 535-102 309m2571 842l1902 516 581 993-493-1096-1889-723-101 310"/></g><g fill="#fdcc90"><path d="m150883 53068l1444 473c10-850 23-1701 36-2551-492 693-985 1387-1480 2078"/><path d="m147707 62710l-604 2983c269 98 532 184 806 264l1278-2763c-494-160-987-322-1480-484m3087 3649l4348-6065 1350 461-5698 5604m-6255-2048l81-7461-1362-428 1281 7889"/><path d="m149036 56350l-421 1286c762 731 1794 1068 2840 930l421-1287c-1067 228-2114-115-2840-929"/></g><path fill="#b8b8b8" d="m151819 52652l9686 3172-5014 4932-6616-2167z"/><g fill="#c94d35"><path d="m154592 69190c258-416 586-841 1073-1242 25 66 163 555 329 1288l4485 147c-105-1738-459-3501-1081-5374-2733 2002-8454 3006-11894 1823l-1013 3093 8101 265"/><path fill-rule="nonzero" d="m157144 36386c2367 4951 4871 9918 7334 14825 0 0-2162 2372-4841 4002-1949 1184-3959 1747-5971 1429 2977-1769 4528-6621 3772-9790-380-1595-1470-3442-3151-1739l2857-8727"/></g><path fill="#b83d2a" d="m159759 65062c-1671 1070-4433 1744-8963 1297 2647 25 6492-805 8601-2350 137 343 265 700 362 1053m-6219 4094c1156-1116 2081-2214 2081-2214 0 0 430 967 861 2310l-481-16c-107-502-221-944-336-1288-453 384-769 813-1031 1244l-1094-36"/><g fill-rule="nonzero"><path fill="#e5e5e5" d="m150794 66359c3713-158 8824-1028 10616-4705 834-1680 820-4122 95-5830l-10711 10535"/><path fill="#202020" d="m157998 63025l-1138 796 773-1154 365 358m1699 307l-1135 794 773-1151 362 357m1226-1338l487-340c127-258 232-520 315-781l-802 1121m-1157-842l-1136 796 772-1151 364 355m1768-1872l-1136 796 773-1152 363 356m-6200 6488c105-27 205-52 303-78l662-463-364-358-601 899m854-2952l-1137 795 773-1151 364 356m1769-1872l-1137 795 773-1153 364 358m1767-1871l-1137 795 773-1154 364 359m1769-1872l-1136 794 771-1149 365 355m-7073 7488l-1137 795 772-1152 365 357"/><path fill="#fdcc90" d="m147504 65832c1026 355 2205 536 3290 528l5697-5604-5176-1765 562-1715c4114-552 6457-6670 5561-10424-380-1595-1470-3442-3151-1739l-6783 20719"/></g><path fill="#a1a1a1" d="m160628 55537c-2096 1552-4786 2964-7018 2234-574 392-1770 770-2159 806l425-1300c602-77 1526-431 2003-814 2340 736 4725-622 5757-1249l992 323"/><g fill-rule="nonzero"><path fill="#333" d="m156134 51074c68 1161-2587 256-1846-603l1846 603"/><path fill="#c94d35" d="m154335 49314l1902 516 581 993-493-1096-1889-723z"/></g><g fill="#fdbc73"><path d="m151605 53304l722 237c10-850 23-1701 36-2551l-758 2314"/><path d="m149929 58424c484 159 1003 208 1526 139l421-1286c-533 114-1061 85-1547-74l-400 1221m-2425 7408c133 44 268 85 405 125l1278-2763c-247-80-494-161-741-241l-942 2879m3290 527l4348-6065 1350 461-5698 5604"/></g><g fill-rule="nonzero"><path fill="#d66b4f" d="m151186 54585c-348-843-1425-271-1425-271l133 45c393 809 1673 1228 2467 808 324 106-190-63 134 43 0 0-530-1099-1309-625"/><path fill="#d66142" d="m152361 55167c-794 420-2075 1-2467-807l2467 807"/><path fill="#c9553f" d="m150977 55224c468 153 987 153 1384-57 324 106-190-63 134 43 0 0-530-1099-1309-625l-209 639"/><path fill="#c94d35" d="m152361 55167c-397 210-916 210-1384 57l151-461 1233 404"/></g><path fill="#c94d35" d="m153791 40455l-160-467c1035-743 2024-1432 3038-2151 393 1180 782 2320 1178 3531l-406 283-1029-3028-2621 1832"/><path fill="#ffd675" d="m156412 38623l-2621 1832c-221-645-437-1291-655-1939-97 51-193 101-289 151l1801 5345 4612-3245c-48-98-95-195-143-292-560 392-1115 786-1676 1176l-1029-3028"/><path fill="#ffc95d" d="m155076 42701l-587-1726 1493-1042 589 1724z"/><path fill="#b83d2a" d="m156669 37837c393 1180 782 2320 1178 3531l-406 283-1029-3028 257-786"/><path fill="#ffc95d" d="m154648 44012l4612-3245c-48-98-95-195-143-292-560 392-1115 786-1676 1176l-1029-3028-1764 5389"/><path fill="#ffb84a" d="m155983 39934l588 1723-1495 1044z"/><path fill="#c9c9c9" d="m148829 84161l1125 6942-19372-6344 5014-4931z"/><g fill="#d66142"><path d="m153096 83255c4121-2923 6395-6311 7939-11093v1l-3233-106c-1412 2674-5194 5693-5386 5814-634-2493 1095-3740-933-5521-5-176-7-343-2-500l-13986-457c-257 416-585 841-1072 1242-26-65-164-555-330-1288l-4485-146c106 1737 459 3501 1082 5373 2732-2002 8453-3006 11893-1823 3474 1081 7494 5273 8513 8504"/><path fill-rule="nonzero" d="m148088 90490c1196 2899 1537 6090 1537 6090-4889 2500-9845 5024-14682 7617-2366-4951-4870-9917-7333-14825 0 0 2161-2371 4840-4002 1949-1184 3960-1746 5971-1429-2976 1769-4528 6622-3772 9790 381 1595 1470 3443 3151 1739 348 2368 2320 1522 3570 461 2483-2107 4102-6939 2748-10124 1810 933 3098 2575 3970 4683"/></g><path fill="#c94d35" d="m154011 82620c-716-1851-2544-4028-6461-6347 2149 1546 4760 4489 5546 6982 313-196 627-407 915-635m-21683-7099c1672-1069 4433-1744 8963-1297-2646-24-6492 805-8601 2350-137-343-264-699-362-1053m6219-4094c-1156 1116-2081 2214-2081 2214 0 0-430-966-861-2310l481 16c107 502 221 944 337 1288 453-384 768-813 1031-1243l1093 35m11533 378c1337 1368 1706 6851 1706 6851 0 0 5995-3427 6397-6587l-383-12c-907 1621-3878 4754-5384 5814-538-2242 1006-3818-933-5521-5-167-6-333-3-500l-1400-45"/><g fill-rule="nonzero"><path fill="#ebebeb" d="m147548 76272c2901 2323 6508 6048 5778 10072-321 1849-1776 3809-3371 4758l-2407-14830m-6254-2048c-3714 158-8825 1028-10616 4705-835 1681-821 4122-96 5830l10712-10535"/><path fill="#333" d="m151386 83221l-447-1315-59 1387 506-72m-17297-5663l1138-796-772 1154-366-358m-1698-307l1135-794-774 1152-361-358m-1227 1339l-486 339c-128 258-232 521-315 781l801-1120m1158 842l1136-796-772 1150-364-354m-1769 1871l1137-795-773 1151-364-356m6201-6487c-105 26-206 51-303 77l-662 463 363 358 602-898m-855 2952l1137-795-773 1151-364-356m-1768 1871l1137-795-774 1153-363-358m-1768 1871l1137-795-773 1155-364-360m-1768 1872l1136-794-771 1150-365-356m7073-7488l1137-795-773 1152-364-357m15269 8084l-445-1311-58 1385 503-74m197 1805l192 561c-49 284-120 557-207 816l15-1377m-1431-6l-445-1314-58 1384 503-70m319 2555l-446-1314-57 1386 503-72m-1163-8898c69 83 136 163 198 242l261 764-505 74 46-1080m-1056 2886l-447-1314-57 1385 504-71m319 2555l-447-1314-58 1387 505-73m319 2553l-447-1313-59 1388 506-75m319 2556l-447-1312-58 1383 505-71m-1276-10221l-446-1314-59 1386 505-72"/><path fill="#fdd8ab" d="m137800 95470c348 2368 2320 1522 3570 461 2942-2497 4671-8816 1680-11694l561-1715 5218 1638-1281-7889c-870-648-1927-1199-2965-1520-1025-355-2204-535-3289-527l-5698 5604 5176 1764-562 1715c-4113 552-6456 6671-5561 10424 381 1595 1470 3443 3151 1739"/></g><path fill="#b8b8b8" d="m131460 85046c2095-1552 4785-2964 7017-2233 574-393 1771-771 2160-807l-426 1300c-602 77-1526 431-2002 814-2340-735-4726 622-5758 1249l-991-323m17618 5768c-772-2490-2106-5220-4338-5951-231-656-972-1669-1264-1928l-426 1301c440 418 976 1249 1133 1840 2322 791 3443 3297 3904 4412l991 326"/><g fill-rule="nonzero"><path fill="#333" d="m142815 91756c741-897-1935-1737-1845-606l1845 606m-6862-2246c-67-1162 2588-257 1846 602l-1846-602"/><path fill="#d66142" d="m140323 92111l1839 709 1056-457-1046 592-1951-535 102-309m-2571-841l-1902-517-580-993 493 1096 1889 723 100-309"/></g><g fill="#fdcc90"><path d="m141204 87515l-1444-472c-10 849-22 1701-35 2550 491-693 985-1387 1479-2078"/><path d="m144380 77874l604-2984c-268-98-531-184-806-264l-1277 2763c493 161 986 322 1479 485m-3086-3650l-4348 6065-1351-460 5699-5605m6254 2048l-80 7462 1361 427-1281-7889"/><path d="m143051 84234l421-1287c-762-730-1793-1068-2840-929l-420 1286c1066-228 2113 115 2839 930"/></g><path fill="#b8b8b8" d="m140268 87931l-9686-3172 5014-4931 6616 2166z"/><g fill="#c94d35"><path d="m137495 71393c-257 416-585 841-1072 1242-26-65-164-555-330-1288l-4485-146c106 1737 459 3501 1082 5373 2732-2002 8453-3006 11893-1823l1013-3093-8101-265"/><path fill-rule="nonzero" d="m134943 104197c-2366-4951-4870-9917-7333-14825 0 0 2161-2371 4840-4002 1949-1184 3960-1746 5971-1429-2976 1769-4528 6622-3772 9790 381 1595 1470 3443 3151 1739l-2857 8727"/></g><path fill="#b83d2a" d="m132328 75521c1672-1069 4433-1744 8963-1297-2646-24-6492 805-8601 2350-137-343-264-699-362-1053m6219-4094c-1156 1116-2081 2214-2081 2214 0 0-430-966-861-2310l481 16c107 502 221 944 337 1288 453-384 768-813 1031-1243l1093 35"/><g fill-rule="nonzero"><path fill="#e5e5e5" d="m141294 74224c-3714 158-8825 1028-10616 4705-835 1681-821 4122-96 5830l10712-10535"/><path fill="#202020" d="m134089 77558l1138-796-772 1154-366-358m-1698-307l1135-794-774 1152-361-358m-1227 1339l-486 339c-128 258-232 521-315 781l801-1120m1158 842l1136-796-772 1150-364-354m-1769 1871l1137-795-773 1151-364-356m6201-6487c-105 26-206 51-303 77l-662 463 363 358 602-898m-855 2952l1137-795-773 1151-364-356m-1768 1871l1137-795-774 1153-363-358m-1768 1871l1137-795-773 1155-364-360m-1768 1872l1136-794-771 1150-365-356m7073-7488l1137-795-773 1152-364-357"/><path fill="#fdcc90" d="m144583 74751c-1025-355-2204-535-3289-527l-5698 5604 5176 1764-562 1715c-4113 552-6456 6671-5561 10424 381 1595 1470 3443 3151 1739l6783-20719"/></g><path fill="#a1a1a1" d="m131460 85046c2095-1552 4785-2964 7017-2233 574-393 1771-771 2160-807l-426 1300c-602 77-1526 431-2002 814-2340-735-4726 622-5758 1249l-991-323"/><g fill-rule="nonzero"><path fill="#333" d="m135953 89510c-67-1162 2588-257 1846 602l-1846-602"/><path fill="#c94d35" d="m137752 91270l-1902-517-580-993 493 1096 1889 723z"/></g><g fill="#fdbc73"><path d="m140482 87279l-722-236c-10 849-22 1701-35 2550l757-2314"/><path d="m142158 82159c-484-158-1003-208-1526-139l-421 1286c533-113 1062-85 1547 74l400-1221m2425-7408c-133-43-267-85-405-125l-1277 2763c246 81 493 161 740 242l942-2880m-3289-527l-4348 6065-1351-460 5699-5605"/></g><g fill-rule="nonzero"><path fill="#d66b4f" d="m140901 85998c348 844 1426 271 1426 271l-134-45c-392-808-1672-1228-2467-807-324-106 190 62-134-44 0 0 530 1099 1309 625"/><path fill="#d66142" d="m139727 85416c794-420 2074-1 2466 808l-2466-808"/><path fill="#c9553f" d="m141110 85360c-468-153-987-153-1384 57-324-106 190 62-134-44 0 0 530 1099 1309 625l209-638"/><path fill="#c94d35" d="m139727 85416c397-210 915-210 1384-57l-151 461-1233-404"/></g><path fill="#c94d35" d="m138296 100128l161 468c-1036 742-2025 1431-3039 2150-392-1179-782-2320-1178-3531l406-282 1030 3027 2620-1832"/><path fill="#ffd675" d="m135676 101960l2620-1832c222 645 437 1292 656 1939 96-50 192-101 288-151l-1800-5345-4613 3246c48 97 96 194 144 292 559-393 1115-787 1675-1176l1030 3027"/><path fill="#ffc95d" d="m137011 97882l587 1726-1493 1042-589-1723z"/><path fill="#b83d2a" d="m135418 102746c-392-1179-782-2320-1178-3531l406-282 1030 3027-258 786"/><path fill="#ffc95d" d="m137440 96571l-4613 3246c48 97 96 194 144 292 559-393 1115-787 1675-1176l1030 3027 1764-5389"/><path fill="#ffb84a" d="m136105 100649l-589-1722 1495-1045z"/>
</symbol>
<symbol id="5" viewBox="0 0 200000 130000"><use transform="matrix(.84066-.38265.38265.84066 8596.77 35049.1)" xlink:href="#card"/><text x="100000" y="65000" fill="#333" font-weight="bold" font-size="9236.43" font-family="Verdana" transform="matrix(.91015-.41428.41428.91015-100664 26321.8)">2</text><g fill="#e03c1b" fill-rule="nonzero"><path d="m23638 47093l-868 4140-3691-2064 868-4140z"/><path d="m72497 86262l-1517 7244-6461-3611 1519-7245z"/></g><use transform="matrix(.9039-.19002.19002.9039 33541.6 20217.6)" xlink:href="#card"/><text x="100000" y="65000" fill="#333" font-weight="bold" font-size="9236.43" font-family="Verdana" transform="matrix(.97861-.20573.20573.97861-71291.1-12114.6)">3</text><path fill="#e03c1b" fill-rule="nonzero" d="m45592 35254l-1749 3850-3153-2819 1751-3851z"/><use transform="matrix(.91782-.10366.10366.91782 62671.4 15115.7)" xlink:href="#card"/><text x="100000" y="65000" fill="#333" font-weight="bold" font-size="9236.43" font-family="Verdana" transform="matrix(.99368-.11223.11223.99368-38632.8-26988.2)">6</text><g fill="#e03c1b" fill-rule="nonzero"><path d="m73246 31224l-2106 3668-2872-3105 2107-3668z"/><path d="m84841 30388l-3684 6419-5026-5434 3687-6419z"/><path d="m87951 57923l-3684 6419-5026-5434 3687-6419z"/><path d="m91061 85459l-3685 6418-5025-5434 3687-6419z"/></g><use transform="matrix(.92359.0109-.0109.92359 91538.7 12632.7)" xlink:href="#card"/><text x="100000" y="65000" fill="#333" font-weight="bold" font-size="9236.15" font-family="Verdana" transform="matrix(.99993.0118-.0118.99993-3714.62-41702.4)">J</text><path fill="#e03c1b" fill-rule="nonzero" d="m116307 59527l-4024-4351 3687-6419 2821 3052z"/><path fill="#ababab" d="m113670 51152l-2168-4539 9705-2311-4711 14638-2714 762z"/><path fill="#757575" d="m120752 45717l-1480-883-266-898 2676-1108z"/><g fill-rule="nonzero"><path fill="#cfcfcf" d="m116557 58750l-248 242-2527 710 6-665 3298-3212 260 474z"/><path fill="#d66142" d="m117346 56301c-1877-3412-3752-6826-5627-10240l5460-1293 2962 2848-2795 8685"/><path fill="#c94d35" d="m117731 55105l-5090-9262 724-172 4668 8494-302 940m2102-6533l-3700-3557-833 198 4288 4122 245-763"/></g><path fill="#909090" d="m113747 57083l-78-5931-3158-6613-2827 3263-1344 7502-116 6521 5919-1663z"/><path fill="#bcbcbc" d="m110280 53893l-1293-5735 1524-3619-2827 3263-1344 7502-81 4543 1041-3470z"/><g fill-rule="nonzero"><path fill="#ebebeb" d="m119006 43937l266 897 1480 883 494-1536z"/><path fill="#ebb07a" d="m117914 30239c0 0-46 5758-5 6033 263 1677 1354 3982 2872 5316l-32 2561 491 51 5659-17582c-3501-1388-8932-210-8985 3621"/><path fill="#d66142" d="m123672 36644c-937 499-3703 3700-3712 4370-17 1052 706 1847 1619 2135l865-2690c-378 80-736-8-888-523 254-364 1120-1577 1763-2194l353-1098"/><path fill="#333" d="m120081 33023c-1390 1529 3029 1574 1671 22l-1671-22"/><path fill="#e59761" d="m123378 32222l-679 3295 1054 877 825-2564-290-1597z"/><path fill="#333" d="m122393 31544l-2964-376 2975-300z"/><path fill="#d66142" d="m118535 25962l-1453 2238 493 5340 731 409 191-4906c0 0 156-1707 1751-1687 1372 17 3158 801 3630 1020 375-163 1569-656 2729-852l830-2578c-1172-754-2338-1539-3491-2279-1782 1085-3596 2273-5411 3295"/></g><path fill="#d66142" d="m108465 52671l-969-3824-1063 5941z"/><path fill="#ababab" d="m112845 70283l-1546-407 2274-4486 102-2793 1808-508z"/><path fill="#7d7d7d" d="m113675 62597l-102 2793-3314 6536-2750-3329-633-4091z"/><path fill="#909090" d="m109982 63634l-1161 4639 1438 3653-2750-3329-633-4091z"/><path fill="#d66142" d="m108304 64105l-958 3438-470-3036z"/><path fill="#e03c1b" fill-rule="nonzero" d="m100035 29928l-2544 3378-2465-3437 2545-3378z"/><use transform="matrix(.87781.28739-.28739.87781 129219 17038.9)" xlink:href="#card"/><g fill="#333" font-family="Verdana" font-weight="bold" font-size="9236.43"><text x="100000" y="65000" transform="matrix(.95036.31114-.31114.95036 54645.6-63362.2)">A</text><text x="100000" y="65000" transform="matrix(-.95036-.31114.31114-.95036 237441 203945)">A</text></g><g fill="#e03c1b" fill-rule="nonzero"><path d="m132137 36086l-3440 2460-1320-4018 3441-2460z"/><path d="m164711 106055l-3440 2460-1321-4018 3441-2459z"/><path d="m154772 73148l-12614 9020-4843-14733 12619-9019z"/></g>
</symbol>
<symbol id="6" viewBox="0 0 200000 130000"><use transform="matrix(.84066-.38265.38265.84066 8596.77 35049.1)" xlink:href="#card"/><g fill="#333"><text x="100000" y="65000" font-weight="bold" font-size="9236.43" font-family="Verdana" transform="matrix(.91015-.41428.41428.91015-100765 26367.8)">3</text><path fill-rule="nonzero" d="m22223 46922c105-1110-1053-1948-2088-1477-1034 471-1163 1894-257 2544-823 283-1231 1215-869 2011 617 1354 2647 1048 2816-444 186 620 222 1260 152 1536l1208-549c-255-129-714-577-1059-1124 1236 853 2800-478 2184-1831-362-796-1333-1101-2087-666"/></g><use transform="matrix(.9039-.19002.19002.9039 33541.6 20217.6)" xlink:href="#card"/><text x="100000" y="65000" fill="#333" font-weight="bold" font-size="9236.43" font-family="Verdana" transform="matrix(.97861-.20573.20573.97861-71245.8-12124.2)">4</text><g fill="#e03c1b" fill-rule="nonzero"><path d="m45592 35253l-1749 3851-3153-2819 1751-3851z"/><path d="m57057 33324l-3061 6739-5517-4934 3063-6739z"/><path d="m68458 87560l-3061 6738-5517-4934 3063-6739z"/></g><use transform="matrix(.91782-.10366.10366.91782 62671.4 15115.7)" xlink:href="#card"/><g fill="#333"><text x="100000" y="65000" font-weight="bold" font-size="9236.43" font-family="Verdana" transform="matrix(.99368-.11223.11223.99368-38600.5-26991.9)">5</text><path d="m70397 28322c895 558 2143 1647 2810 2462 1902 2301-869 3907-2090 2298 156 603 400 1139 706 1527l-1413 160c212-447 330-1024 348-1646-831 1840-3891 893-2551-1774 469-944 1443-2284 2190-3027"/><path d="m79857 25309c1565 977 3750 2883 4918 4309 3327 4028-1523 6837-3659 4022 272 1055 700 1993 1235 2672l-2472 279c371-781 578-1791 609-2880-1455 3221-6809 1564-4464-3104 820-1651 2525-3997 3833-5298"/><path d="m86077 80380c1565 976 3750 2882 4918 4308 3327 4028-1523 6838-3659 4022 272 1055 700 1993 1236 2672l-2473 280c371-782 578-1792 608-2881-1454 3221-6808 1564-4463-3104 820-1651 2525-3997 3833-5297"/></g><use transform="matrix(.92359.0109-.0109.92359 91538.7 12632.7)" xlink:href="#card"/><g fill="#333"><text x="100000" y="65000" font-weight="bold" font-size="9236.43" font-family="Verdana" transform="matrix(.99993.0118-.0118.99993-3765.67-41703)">6</text><path d="m97568 26695c819 664 1923 1900 2483 2791 1602 2519-1347 3769-2359 2021 80 618 256 1180 511 1603l-1421-17c265-417 454-974 549-1590-1053 1723-3972 404-2311-2076 581-878 1714-2087 2548-2732"/><path d="m107328 24878c1432 1163 3364 3325 4346 4885 2802 4409-2358 6596-4129 3537 139 1081 447 2065 895 2805l-2488-29c465-730 796-1706 961-2783-1843 3015-6951 708-4045-3634 1018-1536 3001-3652 4460-4781"/><path d="m107001 52586c1432 1163 3364 3325 4346 4885 2802 4409-2358 6596-4129 3537 139 1081 447 2065 895 2805l-2488-29c465-730 796-1706 961-2783-1843 3016-6951 708-4045-3634 1018-1536 3001-3652 4460-4781"/><path d="m106674 80295c1432 1162 3364 3325 4346 4885 2803 4409-2358 6595-4129 3537 140 1081 447 2064 895 2805l-2488-30c465-730 796-1706 961-2783-1843 3016-6950 708-4045-3633 1018-1537 3001-3653 4460-4781"/></g><use transform="matrix(.87781.28739-.28739.87781 129219 17038.9)" xlink:href="#card"/><text x="100000" y="65000" fill="#333" font-weight="bold" font-size="9236.43" font-family="Verdana" transform="matrix(.95036.31114-.31114.95036 54711.3-63340.7)">7</text><g fill="#e03c1b" fill-rule="nonzero"><path d="m131813 33250c-690-226-1434 151-1659 840 225-689-150-1432-839-1658-692-226-1434 151-1659 840-340 1039 1292 4500 1292 4500 0 0 3366-1825 3706-2864 226-688-151-1432-841-1658"/><path d="m149805 66530c-1262-413-2623 276-3035 1535 412-1259-275-2618-1535-3031-1264-414-2622 276-3034 1536-622 1901 2364 8231 2364 8231 0 0 6156-3337 6778-5238 413-1260-276-2620-1538-3033"/><path d="m174228 45369c-1262-413-2623 275-3035 1535 412-1260-275-2619-1535-3032-1265-413-2622 277-3035 1536-622 1901 2364 8231 2364 8231 0 0 6157-3337 6779-5238 412-1259-276-2619-1538-3032"/><path d="m165606 71703c-1262-413-2623 276-3035 1535 412-1259-275-2618-1535-3031-1265-414-2622 276-3034 1535-623 1902 2364 8232 2364 8232 0 0 6156-3337 6778-5238 412-1260-276-2620-1538-3033"/><path d="m156984 98038c-1262-413-2623 276-3035 1535 412-1259-275-2618-1535-3031-1264-414-2622 276-3034 1536-623 1900 2364 8231 2364 8231 0 0 6156-3337 6778-5238 413-1260-276-2620-1538-3033"/><path d="m160274 107333c690 226 1434-151 1659-839-225 688 150 1431 839 1657 692 226 1434-151 1659-840 340-1039-1292-4500-1292-4500 0 0-3366 1825-3706 2864-226 689 151 1432 841 1658"/><path d="m134004 61357c-1262-413-2622 276-3035 1535 413-1259-274-2618-1534-3031-1265-414-2623 276-3035 1536-622 1900 2364 8231 2364 8231 0 0 6156-3337 6779-5238 412-1260-277-2620-1539-3033"/><path d="m142626 35023c-1262-414-2623 275-3035 1535 412-1260-275-2619-1535-3031-1264-415-2622 275-3034 1535-622 1901 2364 8231 2364 8231 0 0 6156-3337 6778-5238 413-1260-276-2619-1538-3032"/><path d="m125383 87692c-1262-413-2623 276-3036 1535 413-1259-274-2618-1534-3031-1265-414-2622 276-3035 1535-622 1902 2364 8232 2364 8232 0 0 6156-3337 6779-5239 412-1259-276-2619-1538-3032"/></g><text x="100000" y="65000" fill="#333" font-weight="bold" font-size="9236.43" font-family="Verdana" transform="matrix(-.95036-.31114.31114-.95036 237376 203924)">7</text>
</symbol>
<symbol id="7" viewBox="0 0 200000 130000"><use transform="matrix(.84066-.38266.38266.84066 8596.48 35049.4)" xlink:href="#card"/><path fill="#7b976f" fill-rule="nonzero" d="m21276 36889l-1910 5101-1051-2310 651-1740 2310-1051m-4622 74l20767-9453 210 919-20594 9374c-269 123-389 444-267 713l32176 70688c123 269 444 389 713 267l5930-2700 211 919-5758 2621c-733 334-1603 8-1937-725l-32175-70687c-333-731-7-1604 724-1936m8768-1962l-4169 11135-1051-2310 2911-7773 2309-1052m4146-1887l-6428 17168-1051-2310 5169-13807 2310-1051m4146-1887l-8686 23201-1052-2310 7428-19840 2310-1051m4134-1854l-10933 29201-1052-2310 9687-25873 2298-1018m1306 5698l-10352 27649-1051-2310 10675-28514 728 3175m1306 5698l-9771 26097-1051-2309 10094-26962 728 3174m1306 5698l-9189 24545-1052-2309 9513-25410 728 3174m1306 5698l-8608 22993-1052-2310 8933-23857 727 3174m1306 5698l-8027 21441-1051-2310 8351-22305 727 3174m1306 5698l-7446 19889-1051-2310 7770-20753 727 3174m1306 5698l-6865 18337-1051-2310 7189-19201 727 3174m1307 5699l-6284 16784-1052-2310 6608-17649 728 3175m1306 5698l-5703 15232-1051-2310 6026-16096 728 3174m1306 5698l-5122 13680-1051-2310 5445-14545 728 3175m1306 5698l-4541 12128-1051-2310 4864-12992 728 3174m1306 5698l-3960 10576-1051-2309 4283-11441 728 3174m1306 5698l-1198 3201-2310 1051 2781-7426 727 3174"/><use transform="matrix(.9039-.19002.19002.9039 33542.2 20217.8)" xlink:href="#card"/><path fill="#7b976f" fill-rule="nonzero" d="m45515 24779l-2977 4562-522-2484 1016-1556 2483-522m-4526-936l25022-5260 96 924-24928 5240c-289 61-477 348-416 638l15978 76004c60 289 348 477 637 416l16925-3558 96 924-16831 3538c-787 166-1566-342-1731-1130l-15978-76004c-165-786 344-1567 1130-1732m8984-1l-6498 9957-522-2484 4536-6951 2484-522m4458-937l-10019 15351-522-2483 8057-12346 2484-522m4458-937l-13540 20746-522-2483 11578-17741 2484-522m4458-938l-17061 26142-521-2483 15098-23137 2484-522m3046 1226l-19169 29374-522-2483 18619-28532 882-185 190 1826m529 5083l-18761 28749-522-2483 18988-29097 295 2831m529 5083l-18353 28124-522-2483 18581-28472 294 2831m529 5083l-17945 27499-522-2483 18173-27847 294 2831m529 5083l-17537 26873-522-2483 17765-27221 294 2831m530 5084l-17129 26248-523-2484 17357-26595 295 2831m529 5083l-16721 25622-522-2483 16948-25971 295 2832m529 5083l-16313 24997-522-2483 16540-25346 295 2832m529 5084l-15905 24372-522-2484 16132-24720 295 2832m529 5082l-15497 23747-522-2483 15724-24096 295 2832m529 5084l-15089 23121-522-2484 15316-23470 295 2833m529 5083l-14681 22496-521-2483 14908-22845 294 2832m530 5083l-10875 16664-2483 522 13063-20018 295 2832m529 5083l-6946 10644-2483 522 9134-13997 295 2831m529 5083l-3017 4624-2484 521 5206-7976 295 2831m406 3904l-1449 304 1277-1957 172 1653"/><use transform="matrix(.91782-.10367.10367.91782 62672.5 15115.3)" xlink:href="#card"/><text x="100000" y="65000" fill="#333" font-weight="bold" font-size="9236.43" font-family="Verdana" transform="matrix(.99368-.11224.11224.99368-38654.8-26985.5)">8</text><g fill="#e03c1b" fill-rule="nonzero"><path d="m73247 31224l-2106 3667-2872-3105 2107-3667z"/><path d="m84843 30388l-3685 6418-5026-5433 3687-6419z"/><path d="m87952 57923l-3684 6418-5026-5434 3687-6418z"/><path d="m91063 85458l-3685 6418-5026-5433 3687-6419z"/></g><use transform="matrix(.92359.01089-.01089.92359 91539.2 12633)" xlink:href="#card"/><text x="100000" y="65000" fill="#333" font-weight="bold" font-size="9236.43" font-family="Verdana" transform="matrix(.99993.01179-.01179.99993-3788.55-41702.3)">8</text><g fill="#e03c1b" fill-rule="nonzero"><path d="m98876 27320c-726-8-1323 574-1331 1298 8-724-573-1320-1298-1329-727-9-1322 574-1330 1298-13 1094 2582 3906 2582 3906 0 0 2664-2750 2677-3844 8-724-574-1320-1300-1329"/><path d="m109396 53476c-1328-16-2419 1050-2435 2375 16-1325-1047-2416-2373-2432-1331-15-2419 1050-2434 2375-24 2000 4723 7143 4723 7143 0 0 4872-5029 4896-7029 15-1326-1049-2416-2377-2432"/><path d="m109723 25768c-1328-16-2420 1050-2435 2375 15-1325-1048-2416-2373-2432-1331-15-2419 1050-2434 2375-24 2000 4723 7143 4723 7143 0 0 4872-5029 4896-7030 15-1325-1049-2416-2377-2431"/><path d="m109069 81184c-1328-15-2419 1050-2435 2375 16-1325-1047-2416-2373-2431-1330-16-2418 1049-2434 2375-24 2000 4724 7143 4724 7143 0 0 4872-5030 4895-7030 16-1325-1049-2416-2377-2432"/></g><use transform="matrix(.87781.28739-.28739.87781 129219 17038.9)" xlink:href="#card"/><g fill="#333"><g font-family="Verdana" font-weight="bold" font-size="9236.43"><text x="100000" y="65000" transform="matrix(.95036.31114-.31114.95036 54575.6-63385.2)">8</text><text x="100000" y="65000" transform="matrix(-.95036-.31114.31114-.95036 237512 203968)">8</text></g><path d="m161334 108321c989-365 2432-1179 3250-1842 2329-1869-60-4002-1582-2674 275-558 623-1034 1001-1352l-1351-443c117 481 116 1070 7 1683-441-1971-3629-1663-2857 1221 268 1018 951 2528 1532 3407"/><path d="m130754 32262c581 879 1264 2389 1532 3408 772 2883-2416 3191-2857 1220-109 613-110 1202 7 1683l-1351-443c378-318 726-793 1001-1352-1522 1328-3911-805-1583-2674 819-663 2262-1477 3251-1842"/><path d="m172211 43802c1017 1539 2212 4181 2681 5963 1351 5047-4228 5585-5000 2136-191 1073-192 2104 13 2945l-2365-775c662-556 1271-1388 1751-2366-2662 2324-6842-1409-2769-4680 1433-1160 3959-2584 5689-3223"/><path d="m163589 70137c1018 1538 2212 4180 2681 5963 1351 5046-4228 5585-5000 2136-191 1073-192 2104 13 2944l-2365-774c662-557 1271-1389 1751-2367-2662 2325-6842-1409-2768-4679 1432-1160 3958-2584 5688-3223"/><path d="m154967 96471c1018 1539 2212 4182 2681 5964 1351 5046-4227 5585-5000 2136-190 1073-192 2103 13 2944l-2365-774c663-557 1271-1389 1752-2367-2663 2325-6843-1409-2769-4679 1432-1160 3958-2584 5688-3224"/><path d="m140609 33456c1018 1539 2212 4181 2681 5963 1351 5047-4227 5585-5000 2136-191 1073-192 2104 13 2944l-2365-774c662-556 1271-1388 1752-2366-2663 2324-6843-1409-2769-4680 1432-1160 3958-2584 5688-3223"/><path d="m131988 59790c1017 1539 2212 4182 2680 5964 1352 5047-4227 5585-4999 2136-191 1073-193 2104 12 2944l-2365-774c663-557 1271-1389 1752-2367-2663 2325-6843-1409-2769-4679 1432-1160 3958-2584 5689-3224"/><path d="m123366 86126c1017 1538 2212 4180 2680 5963 1352 5046-4227 5585-4999 2136-191 1073-192 2104 12 2944l-2364-774c662-557 1271-1389 1751-2367-2663 2325-6843-1409-2769-4679 1433-1160 3958-2585 5689-3223"/><path d="m152099 51796c1018 1539 2212 4181 2681 5963 1351 5047-4227 5586-5000 2137-191 1072-192 2103 13 2944l-2365-774c662-557 1271-1389 1752-2367-2663 2324-6843-1409-2769-4680 1432-1160 3958-2584 5688-3223"/><path d="m143478 78131c1017 1539 2212 4181 2680 5963 1352 5047-4227 5585-5000 2136-190 1073-192 2104 13 2945l-2365-774c663-557 1271-1389 1752-2367-2663 2324-6843-1409-2769-4679 1432-1161 3958-2585 5689-3224"/></g>
</symbol>
<symbol id="8" viewBox="0 0 200000 130000"><use transform="matrix(.84066-.38266.38266.84066 8596.55 35049.4)" xlink:href="#card"/><path fill="#7b976f" fill-rule="nonzero" d="m21276 36889l-1910 5101-1051-2310 651-1740 2310-1051m-4621 74l21278-9686 200 924-21096 9602c-269 123-389 444-267 713l32177 70688c122 269 443 389 712 267l5514-2510 200 924-5331 2426c-733 334-1603 8-1936-725l-32176-70687c-333-731-7-1603 725-1936m8767-1962l-4169 11135-1051-2310 2911-7773 2309-1052m4146-1887l-6428 17168-1051-2310 5170-13807 2309-1051m4146-1887l-8686 23201-1052-2310 7428-19840 2310-1051m4146-1888l-10945 29235-1051-2310 9686-25873 2310-1052m1589 4943l-10647 28438-1051-2310 10996-29371 702 3243m1259 5823l-10019 26761-1051-2309 10369-27695 701 3243m1260 5822l-9391 25085-1052-2309 9742-26019 701 3243m1260 5822l-8764 23409-1051-2310 9113-24342 702 3243m1260 5822l-8137 21733-1051-2310 8486-22666 702 3243m1259 5822l-7509 20057-1051-2310 7858-20990 702 3243m1260 5823l-6882 18380-1051-2310 7231-19313 702 3243m1259 5822l-6253 16704-1052-2310 6604-17637 701 3243m1260 5823l-5626 15027-1051-2310 5976-15961 701 3244m1260 5821l-4999 13352-1051-2310 5348-14285 702 3243m1260 5823l-4372 11675-1051-2310 4721-12609 702 3244m1259 5822l-3743 9999-1052-2309 4093-10933 702 3243m1260 5822l-936 2500-2310 1051 2544-6794 702 3243"/><use transform="matrix(.9039-.19002.19002.9039 33542.3 20217.6)" xlink:href="#card"/><g fill="#333"><text x="100000" y="65000" font-weight="bold" font-size="9236.43" font-family="Verdana" transform="matrix(.97861-.20573.20573.97861-71181.8-12137.5)">2</text><path d="m42483 32634c943 470 2289 1437 3030 2185 2111 2111-496 3972-1864 2486 212 585 506 1095 848 1453l-1392 292c169-464 233-1050 191-1671-654 1911-3789 1258-2707-1525 377-983 1220-2410 1894-3220"/></g><use transform="matrix(.91782-.10366.10366.91782 62672.3 15115.1)" xlink:href="#card"/><text x="100000" y="65000" fill="#333" font-weight="bold" font-size="9236.43" font-family="Verdana" transform="matrix(.99368-.11223.11223.99368-38521.6-27001.2)">2</text><path fill="#e03c1b" fill-rule="nonzero" d="m73247 31224l-2106 3667-2872-3105 2107-3668z"/><use transform="matrix(.92359.0109-.0109.92359 91539.3 12632.7)" xlink:href="#card"/><text x="100000" y="65000" fill="#333" font-weight="bold" font-size="9236.43" font-family="Verdana" transform="matrix(.99993.0118-.0118.99993-3713.97-41702.4)">A</text><g fill="#e03c1b" fill-rule="nonzero"><path d="m98876 27320c-726-9-1323 574-1331 1298 8-724-573-1321-1298-1329-727-9-1322 574-1330 1298-13 1094 2582 3905 2582 3905 0 0 2664-2749 2677-3843 8-724-574-1321-1300-1329"/><path d="m120729 48868c-634-300-1341-473-2088-481-2788-33-5068 2199-5101 4976-19 1637 1487 4279 3330 6890l3859-11385"/></g><use transform="matrix(.87781.28739-.28739.87781 129219 17038.9)" xlink:href="#card"/><g fill="#333"><g font-family="Verdana" font-weight="bold" font-size="9236.43"><text x="100000" y="65000" transform="matrix(.95036.31114-.31114.95036 54646.3-63362.2)">A</text><text x="100000" y="65000" transform="matrix(-.95036-.31114.31114-.95036 237442 203945)">A</text></g><g fill-rule="nonzero"><path d="m131213 35001c828-745 543-2145-538-2499-1080-354-2138 606-1911 1698-797-349-1729 61-2001 892-462 1414 1239 2564 2374 1580-283 581-690 1076-929 1233l1262 413c-100-267-136-908-20-1544 333 1465 2385 1544 2848 130 272-831-236-1712-1085-1903"/><path d="m163324 106383c227 1091-831 2052-1911 1698-1081-353-1366-1754-537-2500-850-190-1358-1072-1086-1902 463-1414 2515-1335 2848 130 116-636 80-1277-19-1544l1261 413c-239 156-646 652-928 1233 1134-984 2835 166 2373 1579-272 832-1203 1242-2001 893"/><path d="m151381 69173c3038-2736 1992-7870-1970-9167-3961-1297-7840 2225-7009 6227-2924-1280-6338 226-7336 3273-1697 5183 4543 9399 8702 5791-1036 2132-2529 3949-3403 4522l4624 1514c-365-979-495-3328-70-5660 1220 5370 8745 5661 10442 477 998-3047-865-6280-3980-6977"/></g></g>
</symbol>
<symbol id="9" viewBox="0 0 200000 130000"><use transform="matrix(.84066-.38265.38265.84066 8596.77 35049.1)" xlink:href="#card"/><path fill="#7b976f" fill-rule="nonzero" d="m21276 36888l-1910 5101-1051-2309 652-1740 2309-1052m-4621 74l19809-9016 222 914-19649 8943c-269 122-389 444-266 713l32175 70688c122 268 444 389 713 267l5977-2721 222 914-5816 2647c-733 334-1603 8-1937-725l-32175-70687c-333-731-6-1604 725-1937m8767-1961l-4169 11135-1051-2310 2911-7774 2309-1051m4147-1887l-6428 17168-1052-2310 5170-13807 2310-1051m4145-1887l-8686 23201-1052-2310 7429-19840 2309-1051m3505-175l-10304 27522-1051-2310 9687-25873 1357-618 311 1279m1355 5568l-9772 26100-1051-2310 10068-26892 755 3102m1355 5568l-9240 24677-1051-2309 9536-25469 755 3101m1354 5569l-8706 23255-1052-2310 9004-24047 754 3102m1355 5568l-8174 21833-1052-2310 8471-22625 755 3102m1355 5568l-7642 20411-1051-2310 7938-21202 755 3101m1354 5568l-7109 18989-1051-2310 7406-19780 754 3101m1355 5569l-6577 17566-1051-2310 6873-18358 755 3102m1355 5568l-6045 16144-1051-2310 6341-16935 755 3101m1355 5569l-5512 14721-1052-2310 5809-15513 755 3102m1354 5567l-4979 13300-1052-2310 5276-14092 755 3102m1355 5569l-4447 11877-1051-2310 4743-12669 755 3102m1355 5568l-3915 10455-1051-2309 4211-11247 755 3101m1354 5569l-1202 3209-2309 1051 2757-7362 754 3102"/><use transform="matrix(.9039-.19002.19002.9039 33541.6 20217.7)" xlink:href="#card"/><path fill="#7b976f" fill-rule="nonzero" d="m45514 24779l-2977 4561-522-2483 1016-1556 2483-522m-4526-936l24334-5116 114 920-24258 5100c-289 61-477 348-416 637l15978 76005c61 289 348 477 638 416l17768-3735 114 920-17692 3719c-788 166-1566-342-1732-1130l-15978-76004c-165-787 344-1567 1130-1732m8984-1l-6498 9957-521-2484 4536-6951 2483-522m4458-937l-10018 15351-523-2484 8058-12345 2483-522m4458-938l-13539 20747-522-2483 11577-17741 2484-523m4458-937l-17060 26142-522-2483 15098-23137 2484-522m2514 2042l-18637 28558-522-2483 18619-28532 540 2457m613 4954l-18313 28062-522-2483 18494-28338 341 2759m614 4954l-17989 27566-523-2483 18170-27842 342 2759m613 4954l-17666 27069-521-2482 17845-27347 342 2760m613 4953l-17341 26574-522-2483 17522-26850 341 2759m614 4955l-17018 26077-522-2483 17198-26354 342 2760m613 4953l-16694 25582-522-2483 16875-25858 341 2759m614 4955l-16371 25085-522-2483 16551-25362 342 2760m613 4954l-16047 24590-522-2484 16228-24866 341 2760m614 4954l-15723 24093-523-2484 15904-24369 342 2760m613 4954l-15399 23597-522-2484 15579-23874 342 2761m614 4954l-15076 23101-522-2483 15256-23378 342 2760m613 4953l-11354 17399-2483 522 13495-20680 342 2759m613 4954l-7509 11507-2483 523 9651-14789 341 2759m614 4955l-3665 5615-2483 522 5806-8897 342 2760m585 4722l-2275 478 1961-3006 314 2528"/><use transform="matrix(.91782-.10366.10366.91782 62671.7 15115.4)" xlink:href="#card"/><path fill="#7b976f" fill-rule="nonzero" d="m74159 20789l-3395 4259-285-2521 1159-1453 2521-285m-4417-1360l22782-2574-10 931-22668 2561c-294 33-508 301-475 595l8717 77175c33 294 301 508 595 475l12959-1464-10 931-12845 1451c-800 90-1527-489-1617-1289l-8717-77175c-90-798 491-1527 1289-1617m8944 848l-7411 9298-285-2522 5174-6491 2522-285m4527-511l-11426 14335-285-2522 9189-11528 2522-285m4526-511l-15441 19373-285-2522 13204-16566 2522-285m4527-511l-19457 24410-285-2521 17220-21604 2522-285m183 4937l-19129 24000-284-2521 19445-24398-32 2919m-57 5240l-18560 23286-285-2521 18877-23683-32 2918m-58 5241l-17991 22572-285-2521 18308-22970-32 2919m-58 5240l-17422 21859-285-2522 17739-22256-32 2919m-57 5240l-16854 21145-284-2521 17170-21543-32 2919m-58 5240l-16284 20432-285-2522 16601-20828-32 2918m-57 5241l-15716 19717-285-2521 16033-20115-32 2919m-58 5240l-15147 19004-285-2522 15464-19401-32 2919m-58 5241l-14578 18290-285-2522 14895-18688-32 2920m-57 5239l-14009 17577-285-2522 14326-17974-32 2919m-58 5241l-13440 16863-285-2522 13757-17261-32 2920m-57 5240l-12872 16149-285-2521 13189-16547-32 2919m-58 5240l-8427 10574-2522 284 10981-13777-32 2919m-57 5240l-3844 4822-2521 285 6397-8025-32 2918m-49 4394l-1789 202 1812-2274-23 2072"/><use transform="matrix(.92359.0109-.0109.92359 91538.7 12632.7)" xlink:href="#card"/><g fill="#333"><text x="100000" y="65000" font-weight="bold" font-size="9236.43" font-family="Verdana" transform="matrix(.99993.0118-.0118.99993-3765.67-41703)">3</text><g fill-rule="nonzero"><path d="m98827 29171c567-960-125-2210-1262-2224-1136-13-1858 1220-1314 2193-866-93-1631 577-1641 1452-17 1487 1951 2073 2738 794-96 640-335 1235-516 1455l1327 16c-175-224-401-825-481-1467 756 1298 2738 758 2755-730 11-874-739-1563-1606-1489"/><path d="m126156 29407c992-1680-219-3868-2208-3891-1990-24-3252 2135-2300 3838-1515-164-2854 1010-2872 2540-30 2603 3414 3629 4791 1391-167 1119-586 2160-902 2546l2322 27c-307-393-702-1444-842-2566 1324 2270 4791 1325 4822-1278 18-1530-1293-2735-2811-2607"/></g></g><use transform="matrix(.87781.28739-.28739.87781 129219 17038.9)" xlink:href="#card"/><text x="100000" y="65000" fill="#333" font-weight="bold" font-size="9236.43" font-family="Verdana" transform="matrix(.95036.31114-.31114.95036 54597.1-63378)">3</text><g fill="#e03c1b" fill-rule="nonzero"><path d="m131813 33250c-690-226-1434 151-1659 840 225-689-150-1432-839-1658-692-226-1434 151-1659 840-340 1039 1292 4500 1292 4500 0 0 3366-1825 3706-2864 226-688-151-1432-841-1658"/><path d="m160274 107333c690 226 1434-151 1659-839-225 688 150 1431 839 1657 692 226 1434-151 1659-840 340-1039-1292-4500-1292-4500 0 0-3366 1825-3706 2864-226 689 151 1432 841 1658"/><path d="m149805 66530c-1262-413-2623 276-3035 1535 412-1259-275-2618-1535-3031-1264-414-2622 276-3034 1536-622 1901 2364 8231 2364 8231 0 0 6156-3337 6778-5238 413-1260-276-2620-1538-3033"/><path d="m158427 40196c-1262-414-2623 275-3035 1535 412-1260-275-2619-1535-3031-1265-415-2622 276-3034 1535-623 1901 2364 8231 2364 8231 0 0 6156-3337 6778-5238 412-1259-276-2619-1538-3032"/><path d="m141183 92865c-1262-413-2623 276-3035 1535 412-1259-274-2619-1535-3031-1264-414-2622 276-3034 1536-622 1901 2364 8231 2364 8231 0 0 6156-3337 6779-5238 412-1260-277-2620-1539-3033"/></g><text x="100000" y="65000" fill="#333" font-weight="bold" font-size="9236.43" font-family="Verdana" transform="matrix(-.95036-.31114.31114-.95036 237490 203961)">3</text>
</symbol></svg>