<svg xmlns="http://www.w3.org/2000/svg">
<symbol id="1" viewBox="0 0 200000 130000"><defs><rect id="0" width="70500" rx="5124" height="98250" stroke="#dbdbdb" stroke-width="708.66" fill="#fff"/></defs><use transform="matrix(.91015-.41429.41429.91015 1040.98 32574)" href="#0"/><path fill="#7b976f" fill-rule="nonzero" d="m14768 34565l-2067 5523-1138-2500 705-1885 2500-1138m-5003 80l51274-23339c790-360 1736-6 2096 785l34836 76530c361 793 7 1736-785 2097l-51274 23339c-793 361-1735 8-2096-785l-34836-76530c-360-792-6-1736 785-2097m51688-22429l-51273 23340c-292 132-422 480-290 771l34836 76531c132 291 481 421 772 289l51274-23339c292-134 421-480 288-772l-34835-76531c-133-292-479-422-772-289m-42196 20306l-4513 12055-1138-2501 3151-8416 2500-1138m4489-2043l-6959 18587-1138-2501 5596-14948 2501-1138m4489-2043l-9405 25118-1138-2501 8042-21479 2501-1138m4489-2044l-11850 31651-1139-2501 10487-28011 2502-1139m4488-2043l-14295 38183-1138-2501 12932-34544 2501-1138m4489-2043l-16741 44714-1138-2500 15379-41076 2500-1138m4489-2043l-19187 51246-1138-2500 17825-47609 2500-1137m4488-2044l-21632 57779-1138-2501 20270-54139 2500-1139m4489-2043l-24078 64310-1138-2500 22716-60672 2500-1138m4489-2043l-26523 70842-1138-2500 25160-67204 2501-1138m3041 1823l-27521 73508-1138-2501 27521-73507 1138 2500m2043 4489l-27521 73508-1138-2501 27521-73508 1138 2501m2044 4489l-27522 73508-1138-2501 27521-73508 1139 2501m2043 4488l-27522 73508-1138-2501 27521-73508 1139 2501m2043 4489l-27521 73508-1138-2501 27521-73508 1138 2501m2043 4489l-27521 73508-1138-2501 27521-73508 1138 2501m2043 4488l-25161 67204-2500 1138 26523-70842 1138 2500m2044 4489l-22716 60672-2500 1138 24078-64310 1138 2500m2043 4489l-20270 54139-2500 1139 21632-57779 1138 2501m2043 4488l-17825 47609-2500 1138 19187-51247 1138 2500m2043 4489l-15379 41076-2500 1138 16741-44714 1138 2500m2043 4489l-12933 34544-2500 1138 14295-38183 1138 2501m2044 4489l-10488 28012-2501 1138 11851-31651 1138 2501m2043 4489l-8042 21479-2501 1139 9405-25119 1138 2501m2043 4488l-5597 14948-2500 1139 6959-18588 1138 2501m2043 4489l-3151 8416-2500 1138 4513-12055 1138 2501m2043 4489l-705 1884-2500 1138 2067-5523 1138 2501"/><use transform="matrix(.97861-.20573.20573.97861 28048.7 16516.5)" href="#0"/><path fill="#7b976f" fill-rule="nonzero" d="m41011 21455l-3223 4938-565-2688 1100-1685 2688-565m-4900-1014l55130-11589c850-179 1696 373 1875 1223l17299 82287c179 852-372 1696-1224 1875l-55131 11589c-852 180-1695-370-1874-1223l-17299-82287c-179-851 373-1696 1224-1875m55336-10611l-55131 11590c-313 66-516 377-450 690l17299 82287c66 313 377 517 690 451l55131-11590c314-66 516-376 450-690l-17299-82287c-66-315-375-517-690-451m-45610 10610l-7034 10780-566-2689 4912-7526 2688-565m4827-1014l-10847 16620-565-2689 8723-13366 2689-565m4826-1015l-14658 22462-565-2689 12534-19208 2689-565m4827-1015l-18470 28303-566-2689 16347-25049 2689-565m4826-1014l-22282 34143-565-2688 20158-30890 2689-565m4826-1015l-26093 39984-565-2687 23970-36732 2688-565m4827-1015l-29906 45826-565-2688 27783-42572 2688-566m4826-1014l-33717 51666-565-2688 31593-48413 2689-565m4826-1015l-37529 57508-565-2689 35406-54254 2688-565m4827-1014l-41341 63348-565-2688 39217-60095 2689-565m2570 2442l-42896 65732-565-2688 42896-65732 565 2688m1015 4827l-42896 65732-566-2688 42897-65733 565 2689m1015 4827l-42897 65732-565-2689 42896-65733 566 2690m1014 4825l-42896 65732-566-2688 42897-65733 565 2689m1015 4827l-42897 65732-565-2689 42896-65732 566 2689m1014 4826l-42896 65733-565-2689 42896-65732 565 2688m1015 4826l-39218 60095-2688 566 41341-63349 565 2688m1014 4827l-35405 54254-2688 565 37528-57507 565 2688m1015 4826l-31594 48413-2688 565 33717-51666 565 2688m1015 4827l-27783 42571-2688 566 29905-45826 566 2689m1014 4826l-23970 36731-2688 565 26093-39984 565 2688m1015 4826l-20159 30890-2688 565 22282-34143 565 2688m1015 4827l-16347 25049-2689 565 18470-28303 566 2689m1014 4826l-12535 19208-2688 565 14658-22462 565 2689m1015 4827l-8723 13366-2689 566 10846-16621 566 2689m1015 4826l-4912 7526-2689 565 7035-10780 566 2689m1014 4826l-1100 1685-2688 565 3223-4938 565 2688"/><use transform="matrix(.99368-.11224.11224.99368 59586.8 10992.3)" href="#0"/><g fill="#333" font-family="Arial" font-weight="bold" font-size="10000.1"><text x="100000" y="65000" transform="matrix(.99368-.11224.11224.99368-41299.4-30177.4)">8</text><text x="100000" y="65000" transform="matrix(-.99368.11224-.11224-.99368 241555 141879)">8</text></g><g fill="#e03c1b" fill-rule="nonzero"><path d="m71035 28432l-2279 3971-3110-3362 2281-3971z"/><path d="m134609 82660l-2280 3971-3109-3362 2281-3971z"/><path d="m119362 23487l-3989 6949-5441-5883 3992-6950z"/><path d="m122730 53297l-3990 6950-5441-5883 3992-6950z"/><path d="m126097 83109l-3990 6949-5441-5883 3992-6949z"/><path d="m83589 27527l-3989 6949-5441-5883 3992-6949z"/><path d="m86957 57338l-3990 6949-5441-5883 3992-6949z"/><path d="m90324 87149l-3990 6949-5441-5882 3992-6950z"/><path d="m103160 40412l-3990 6949-5441-5883 3992-6949z"/><path d="m106527 70223l-3990 6950-5441-5883 3992-6950z"/></g><use transform="matrix(.99993.01179-.01179.99993 90839.6 8304.76)" href="#0"/><text x="100000" y="65000" fill="#333" font-weight="bold" font-size="10000.1" font-family="Arial" transform="matrix(.99993.01179-.01179.99993-4165.88-45051.9)">8</text><g fill="#e03c1b" fill-rule="nonzero"><path d="m98783 24206c-786-9-1432 621-1441 1405 9-784-620-1429-1405-1439-788-9-1431 622-1441 1406-14 1184 2796 4228 2796 4228 0 0 2884-2977 2898-4161 9-784-621-1430-1407-1439"/><path d="m128349 37737c-1438-17-2620 1136-2637 2571 17-1435-1134-2616-2569-2633-1441-17-2619 1137-2635 2571-26 2166 5114 7734 5114 7734 0 0 5274-5445 5300-7611 17-1434-1136-2615-2573-2632"/><path d="m146524 22950c-1437-17-2619 1136-2636 2571 17-1435-1134-2616-2569-2633-1441-17-2619 1137-2636 2571-25 2166 5115 7734 5115 7734 0 0 5274-5445 5300-7611 17-1434-1136-2615-2574-2632"/><path d="m146171 52948c-1438-17-2620 1137-2637 2571 17-1434-1134-2615-2569-2632-1441-17-2618 1136-2635 2571-26 2165 5114 7734 5114 7734 0 0 5274-5446 5300-7611 17-1435-1136-2616-2573-2633"/><path d="m145817 82947c-1438-17-2619 1136-2636 2571 17-1435-1134-2615-2570-2632-1440-18-2618 1136-2635 2571-26 2165 5114 7733 5114 7733 0 0 5275-5445 5300-7610 17-1435-1136-2616-2573-2633"/><path d="m152232 91479c786 9 1432-622 1442-1406-10 784 620 1430 1404 1439 788 10 1432-621 1441-1406 14-1183-2796-4228-2796-4228 0 0-2884 2978-2897 4162-10 784 620 1429 1406 1439"/><path d="m110172 52524c-1437-17-2619 1136-2636 2571 17-1435-1134-2616-2569-2633-1441-17-2618 1137-2635 2571-26 2166 5114 7734 5114 7734 0 0 5274-5445 5300-7611 17-1434-1136-2615-2574-2632"/><path d="m110526 22525c-1437-17-2619 1137-2636 2571 17-1434-1134-2615-2569-2632-1441-17-2619 1136-2636 2571-25 2165 5115 7734 5115 7734 0 0 5274-5446 5299-7611 18-1435-1135-2616-2573-2633"/><path d="m109819 82522c-1438-17-2620 1137-2637 2571 17-1434-1133-2615-2569-2632-1440-17-2618 1137-2635 2571-26 2166 5114 7734 5114 7734 0 0 5274-5445 5300-7611 17-1435-1136-2616-2573-2633"/><path d="m127995 67735c-1438-17-2620 1137-2637 2571 17-1434-1133-2615-2569-2632-1440-17-2618 1136-2635 2571-26 2166 5114 7734 5114 7734 0 0 5275-5446 5300-7611 17-1435-1136-2616-2573-2633"/></g><text x="100000" y="65000" fill="#333" font-weight="bold" font-size="10000.1" font-family="Arial" transform="matrix(-.99993-.01179.01179-.99993 255181 160736)">8</text><use transform="matrix(.95036.31114-.31114.95036 131634 13074.8)" href="#0"/><g fill="#333"><g font-family="Arial" font-weight="bold" font-size="10000.1"><text x="100000" y="65000" transform="matrix(.95036.31114-.31114.95036 57004.5-66319.1)">8</text><text x="100000" y="65000" transform="matrix(-.95036-.31114.31114-.95036 242695 207778)">8</text></g><path d="m166403 111902c1071-395 2634-1276 3520-1994 2520-2023-66-4333-1713-2895 297-605 674-1120 1083-1464l-1463-479c127 520 127 1158 8 1822-478-2134-3929-1801-3093 1321 290 1103 1029 2737 1658 3689"/><path d="m133296 29556c629 952 1368 2587 1658 3689 836 3122-2615 3456-3093 1322-118 663-119 1301 8 1821l-1463-479c410-344 786-859 1083-1464-1647 1438-4233-872-1712-2895 885-717 2448-1599 3519-1994"/><path d="m178179 42050c1102 1666 2395 4526 2903 6456 1463 5464-4577 6047-5413 2313-207 1161-209 2277 13 3188l-2560-839c717-602 1376-1503 1896-2562-2882 2517-7408-1525-2997-5066 1550-1256 4285-2798 6158-3490"/><path d="m168845 70562c1102 1665 2395 4526 2902 6456 1464 5463-4577 6046-5413 2312-206 1162-208 2278 14 3188l-2560-838c717-603 1376-1504 1896-2563-2883 2517-7408-1525-2997-5066 1550-1256 4284-2798 6158-3489"/><path d="m159511 99073c1101 1666 2395 4527 2902 6457 1463 5463-4577 6046-5413 2312-207 1162-208 2277 14 3188l-2561-839c718-602 1376-1503 1896-2562-2882 2517-7408-1525-2997-5066 1550-1256 4285-2798 6159-3490"/><path d="m143966 30849c1102 1666 2395 4526 2902 6456 1463 5464-4577 6047-5413 2313-207 1161-208 2277 14 3187l-2561-838c718-603 1376-1503 1897-2562-2883 2516-7409-1526-2998-5066 1550-1256 4285-2798 6159-3490"/><path d="m134632 59360c1101 1666 2395 4527 2902 6457 1463 5463-4577 6046-5413 2312-207 1162-208 2278 13 3188l-2560-838c717-603 1376-1504 1896-2563-2882 2517-7408-1525-2997-5066 1550-1256 4285-2798 6159-3490"/><path d="m125297 87872c1102 1666 2395 4526 2902 6456 1463 5464-4577 6047-5413 2313-207 1161-208 2277 14 3188l-2560-839c717-603 1376-1503 1896-2562-2883 2516-7409-1526-2998-5066 1551-1256 4285-2798 6159-3490"/><path d="m156406 50705c1101 1666 2395 4526 2902 6456 1463 5464-4577 6047-5413 2313-207 1161-208 2277 14 3187l-2561-838c717-602 1376-1503 1896-2562-2882 2517-7408-1526-2997-5066 1550-1256 4285-2798 6159-3490"/><path d="m147071 79217c1102 1666 2395 4526 2902 6456 1463 5464-4577 6047-5413 2313-206 1161-208 2277 14 3187l-2560-838c717-603 1376-1504 1896-2562-2883 2516-7408-1526-2997-5066 1550-1257 4284-2798 6158-3490"/></g>
</symbol></svg>