<svg version="1" xmlns="http://www.w3.org/2000/svg" width="682.667" height="682.667" viewBox="0 0 512.000000 512.000000"><path d="M244.1 111.6c-10 2.7-17.5 9.4-20.6 18.3-.9 2.7-6.1 44.2-12.6 101.6-12 106.1-11.9 102.8-6.4 112.1 3.1 5.2 7.5 9.1 14 12 3.9 1.7 10.2 2.8 29 4.9 13.2 1.4 25.5 2.8 27.2 3.2l3.3.5-3.5-5.8c-2-3.3-3.8-6.9-4.2-8.2-.6-2.7-.1-2.6-24.3-5.3-10.7-1.2-20.6-2.7-22-3.4-5.9-3.1-9.3-9.4-8.4-15.8.2-1.7 4.5-39.2 9.4-83.2 11.6-102.9 12-106.7 13.1-108.6.4-.9 2.4-3 4.4-4.8 3-2.6 4.4-3.1 8.8-3.1 4.3 0 49.8 4.7 61.4 6.4 2.7.4 3.5 0 5.9-3.5 1.5-2.2 4.5-5.3 6.6-6.9l4-2.8-4.4-.7c-5.3-.7-74.6-8.5-75-8.4-.2 0-2.7.7-5.7 1.5z"/><path d="M175.3 120.1c-20 2.1-38.1 4.3-40.2 4.9-5.4 1.4-11.9 6.5-15.8 12.3-6.4 9.5-6.6 4.5 4.6 113.5 8 78.5 10.4 99.1 11.9 102.5 2.5 5.6 7.4 11.2 12.7 14.2 7.5 4.5 11.5 4.6 40.8 1.7 14.7-1.5 26.7-2.9 26.7-3.2 0-.3-1.9-1.5-4.2-2.7-2.4-1.1-6.4-3.9-9-6.2l-4.7-4.2-14.7 1.6c-19 2-23.9 1.9-27.6-.3-6.7-3.9-6 .5-16.8-104.7-10-98.5-10.1-99.7-6.6-105 3-4.5 7.1-5.4 43.3-9.1 19.1-1.9 35.3-3.6 35.8-3.8.6-.2 1.6-2.1 2.4-4.2.7-2.2 2.4-5.6 3.7-7.7l2.4-3.7-4.2.1c-2.4.1-20.6 1.9-40.5 4zM343.5 123.9c-8.6 2.2-15.9 7.7-19.7 14.7-4 7.4-46.2 194.8-45.5 202 1 9.9 8.5 20.3 17.7 24.3 2.5 1.1 32.8 8.3 67.5 16.1 68 15.4 68.3 15.4 77.7 11.2 6.3-2.8 11.3-7.6 14.2-13.5 3.2-6.6 44.8-189.6 44.9-197.7.2-8.1-2.6-15.2-8.1-20.8-2.6-2.6-6.4-5.5-8.4-6.5-4.3-2-124.8-29.5-132.3-30.2-2.7-.2-6.3-.1-8 .4zm72 29.1c61.8 13.9 61.9 13.9 65.3 17.4 6.2 6.1 6.6 3.2-16.3 104.6-11.3 50.3-21 92.9-21.6 94.7-1.3 4.1-6.9 9-11.1 9.8-4 .8-126.6-26.6-131.3-29.3-1.7-1-4-3.8-5.4-6.6l-2.4-4.8 21.2-94.2c11.7-51.7 21.7-95.3 22.2-96.7 2.2-5.8 9.8-10.3 15.4-9.3 1.1.2 29.9 6.7 64 14.4z"/><path d="M351.8 212.4c-9.2 3.8-15.1 9.5-19.4 19.1-2.4 5.1-2.6 6.6-2.2 14.4.3 7 1 9.9 3.5 15.3 3 6.3 38.1 63.7 40.8 66.7 1.1 1.1 6.6-2 33.2-18.5 33.6-20.9 40.8-26.5 45.9-35.7 2.7-4.8 2.9-6 2.9-15.2 0-9.5-.2-10.3-3.4-16.3-4.3-7.9-11.5-14.4-18.9-17.2-8.2-3.1-21.5-2.5-28.9 1.3-2.8 1.5-5.5 3.1-5.8 3.7-.4.6-1.9-.8-3.4-3.2-3.9-6.2-11.4-12.4-17.7-14.8-7.8-2.9-19-2.7-26.6.4zM67.4 146.9c-39.8 11.4-42.6 12.6-48.5 20.5-4 5.5-6.3 13.6-5.6 20 .6 5.6 51.7 187.1 54.1 192.3 4.3 9.1 14.8 16.2 25.1 17 5.2.4 9.5-.5 33-7.2 14.9-4.2 27.7-7.9 28.5-8.2.9-.3-.4-1.1-3.2-1.9-2.5-.8-7-3-10-5l-5.3-3.6-20 5.6c-11 3.1-20.7 5.6-21.5 5.6-3-.1-9.9-3.9-11.5-6.4-.9-1.3-7.5-23.1-14.6-48.3-7.1-25.2-19.1-67.3-26.5-93.7-15.1-53.3-15-52.3-8.6-58.6 3.5-3.4 5.6-4.1 37.4-13l33.8-9.5.6-3.5c.3-1.9 1.2-5.5 2-7.9.8-2.5 1.4-4.6 1.4-4.8 0-.9-6.7.8-40.6 10.6zM206.5 169c-.5.8-2.7 5.8-4.8 11-8 19.8-21 39.9-35.8 55.4-6.2 6.5-9.9 11.2-9.9 12.5 0 1.5 1.4 3 4.6 4.9 7.2 4.1 20.1 13.8 28 20.8l7 6.3 2.2-19.2c1.2-10.6 4-35.3 6.2-55.1 2.2-19.7 3.9-36.3 3.7-36.9-.2-.7-.7-.5-1.2.3zM277 201.1c-29 22.5-33.1 26.3-37.3 34.9-2.8 5.7-3.2 7.4-3.2 15 0 7.2.4 9.3 2.7 14 3.9 7.9 8.8 13.2 15.5 16.8 9.3 4.9 23.6 6.3 24.7 2.3 1.7-6 22.6-100.5 22.4-101.2-.2-.4-11.3 7.8-24.8 18.2z"/><path d="M103.3 196.1c-5.6 2.7-11.9 9.7-15.1 16.7-3.7 8.2-3.6 18.3.2 26.9 1.6 3.4 3.9 7.2 5.2 8.4l2.4 2.3-5.9 2.8c-15.9 7.6-23.3 26.6-16.9 43.5 2.6 7 10.5 15.4 17.5 18.4 6.7 3 17.6 3.6 24.2 1.4 4.7-1.5 5.1-1.9 5.1-4.8 0-1.8-1.6-18.5-3.5-37.2-1.9-18.7-4.4-43.7-5.6-55.5-1.1-11.8-2.4-22.3-2.7-23.3-.7-1.6-1-1.6-4.9.4zM270.8 297.7c-5.1.4-4.9.2-5.2 7-.1 2.5 8.2 3.7 8.8 1.4.8-2.7 1.8-9.1 1.5-8.9-.2.1-2.5.3-5.1.5zM119.1 324.9c-1 .7-1 1.6 0 4.9 1.4 5 2.9 4.6 2.9-.8 0-4.2-.8-5.3-2.9-4.1z"/></svg>