<?xml version="1.0" standalone="no"?>
<!DOCTYPE svg PUBLIC "-//W3C//DTD SVG 20010904//EN"
 "http://www.w3.org/TR/2001/REC-SVG-20010904/DTD/svg10.dtd">
<svg version="1.0" xmlns="http://www.w3.org/2000/svg"
 width="512.000000pt" height="512.000000pt" viewBox="0 0 512.000000 512.000000"
 preserveAspectRatio="xMidYMid meet">
<metadata>
Created by potrace 1.11, written by Peter Selinger 2001-2013
</metadata>
<g transform="translate(0.000000,512.000000) scale(0.100000,-0.100000)"
fill="#000000" stroke="none">
<path d="M1027 4395 c-466 -156 -860 -291 -875 -300 -91 -58 -136 -138 -136
-240 -1 -74 -2 -69 849 -2615 62 -184 115 -344 118 -355 17 -60 60 -176 80
-214 20 -41 124 -137 136 -126 2 3 10 0 17 -6 8 -6 44 -12 81 -12 57 -1 95 8
240 57 95 31 179 54 185 50 8 -4 9 -3 5 2 -5 5 103 46 254 96 l262 87 -44 11
c-144 39 -234 139 -246 273 -5 64 -5 66 112 510 20 76 39 148 41 160 3 12 6
27 8 32 16 58 33 125 86 330 61 236 68 262 69 278 1 5 5 5 11 2 6 -3 7 1 4 9
-3 8 17 102 45 208 44 169 155 597 165 638 2 8 15 59 29 114 l25 98 -43 127
c-24 69 -48 142 -53 161 -38 130 -254 753 -268 776 -55 87 -143 134 -249 133
-51 0 -183 -41 -908 -284z"/>
<path d="M3081 4504 c-89 -26 -186 -106 -216 -178 -12 -27 -212 -783 -235
-886 -8 -35 -95 -371 -196 -755 -31 -115 -57 -217 -59 -225 -11 -48 -57 -227
-62 -240 -3 -8 -8 -23 -10 -34 -5 -28 -53 -217 -63 -251 -14 -47 -62 -234 -62
-240 0 -2 -4 -19 -9 -37 -6 -18 -23 -85 -40 -148 -38 -150 -35 -136 -54 -208
-22 -88 -26 -137 -15 -189 16 -68 47 -126 95 -175 52 -54 107 -81 218 -108 45
-11 89 -22 98 -24 9 -2 67 -18 130 -34 63 -17 195 -52 294 -77 99 -26 223 -58
275 -71 52 -14 102 -27 110 -29 8 -2 76 -19 150 -38 609 -159 606 -158 705
-113 153 70 174 107 269 476 25 96 52 202 61 235 9 33 19 71 21 85 3 14 8 34
11 45 4 11 8 25 9 30 1 6 7 30 14 55 7 25 13 52 15 60 3 14 120 464 166 640
32 121 74 283 124 475 26 99 60 232 77 295 16 63 31 122 33 130 2 8 17 69 35
135 148 564 152 585 148 680 -5 101 -21 138 -92 213 -55 59 -95 76 -271 122
-82 21 -222 57 -310 80 -88 23 -167 43 -175 45 -8 2 -42 10 -75 19 -33 9 -148
39 -255 67 -107 28 -247 64 -310 80 -63 17 -122 32 -130 34 -8 2 -78 20 -154
39 -143 38 -193 41 -265 20z"/>
</g>
</svg>
